<svg width="94" height="14" viewBox="0 0 94 14" fill="none" xmlns="http://www.w3.org/2000/svg">
<g opacity="0.5">
<path d="M0.710022 12.9037V11.4547H2.72602L6.21202 1.98375H4.09102V0.534746H8.16502L11.966 11.4547H13.961V12.9037H8.85802V11.4547H10.181L9.50902 9.54375H4.97302L4.25902 11.4547H5.60302V12.9037H0.710022ZM5.49802 8.09475H9.00502L7.34602 2.65575L5.49802 8.09475Z" fill="#292D34"/>
<path d="M14.9557 0.534746H19.9327V1.98375H18.5887V5.93175H20.5417L23.4397 1.98375H21.8857V0.534746H27.0517V1.98375H25.1407L21.9697 6.28875L25.4347 11.4547H27.5347V12.9037H21.8857V11.4547H23.5867L20.8777 7.38075H18.5887L18.6097 11.4547H19.9327V12.9037H14.9557V11.4547H16.9297V1.98375H14.9557V0.534746Z" fill="#292D34"/>
<path d="M33.9402 0.219746C35.0882 0.219746 36.0962 0.492746 36.9642 1.03875C37.8322 1.57075 38.5042 2.32675 38.9802 3.30675C39.4702 4.28675 39.7152 5.42075 39.7152 6.70875C39.7152 7.99675 39.4772 9.13775 39.0012 10.1317C38.5252 11.1117 37.8462 11.8747 36.9642 12.4207C36.0962 12.9527 35.0952 13.2187 33.9612 13.2187C32.8272 13.2187 31.8192 12.9527 30.9372 12.4207C30.0692 11.8747 29.3972 11.1117 28.9212 10.1317C28.4452 9.13775 28.2072 7.99675 28.2072 6.70875C28.2072 5.42075 28.4452 4.28675 28.9212 3.30675C29.3972 2.32675 30.0692 1.57075 30.9372 1.03875C31.8052 0.492746 32.8062 0.219746 33.9402 0.219746ZM33.9612 1.68975C32.7152 1.68975 31.7422 2.13075 31.0422 3.01275C30.3422 3.89475 29.9922 5.12675 29.9922 6.70875C29.9922 8.30475 30.3422 9.54375 31.0422 10.4257C31.7422 11.3077 32.7152 11.7487 33.9612 11.7487C35.2072 11.7487 36.1802 11.3077 36.8802 10.4257C37.5802 9.54375 37.9302 8.30475 37.9302 6.70875C37.9302 5.12675 37.5802 3.89475 36.8802 3.01275C36.1802 2.13075 35.2072 1.68975 33.9612 1.68975Z" fill="#292D34"/>
<path d="M45.2476 5.80575C45.9196 5.80575 46.4516 5.60275 46.8436 5.19675C47.2356 4.77675 47.4316 4.23075 47.4316 3.55875C47.4316 2.98475 47.2216 2.52975 46.8016 2.19375C46.3816 1.84375 45.8216 1.66875 45.1216 1.66875C44.5756 1.66875 44.0366 1.77375 43.5046 1.98375C42.9866 2.19375 42.5596 2.46675 42.2236 2.80275L41.0896 1.71075C41.5516 1.23475 42.1396 0.870746 42.8536 0.618746C43.5816 0.352746 44.3796 0.219746 45.2476 0.219746C46.4376 0.219746 47.3966 0.527746 48.1246 1.14375C48.8526 1.75975 49.2166 2.56475 49.2166 3.55875C49.2166 4.24475 49.0276 4.86075 48.6496 5.40675C48.2856 5.95275 47.7956 6.34475 47.1796 6.58275C47.9496 6.70875 48.5726 7.04475 49.0486 7.59075C49.5386 8.12275 49.7836 8.75975 49.7836 9.50175C49.7836 10.2297 49.5946 10.8807 49.2166 11.4547C48.8386 12.0147 48.2996 12.4487 47.5996 12.7567C46.9136 13.0647 46.1156 13.2187 45.2056 13.2187C43.3016 13.2187 41.8456 12.7357 40.8376 11.7697L41.9086 10.5727C42.5106 11.0067 43.0496 11.3147 43.5256 11.4967C44.0156 11.6787 44.5966 11.7697 45.2686 11.7697C46.0806 11.7697 46.7386 11.5667 47.2426 11.1607C47.7466 10.7407 47.9986 10.1947 47.9986 9.52275C47.9986 8.83675 47.7046 8.29075 47.1166 7.88475C46.5286 7.46475 45.7516 7.25475 44.7856 7.25475H43.8196V5.80575H45.2476Z" fill="#292D34"/>
<path d="M53.2017 11.0347C53.2297 11.0347 53.5027 11.1607 54.0207 11.4127C54.5527 11.6647 55.2037 11.7907 55.9737 11.7907C57.2057 11.7907 58.0597 11.3707 58.5357 10.5307C59.0257 9.67675 59.3057 8.59175 59.3757 7.27575C59.0537 7.70975 58.5917 8.08775 57.9897 8.40975C57.4017 8.71775 56.7507 8.87175 56.0367 8.87175C54.8187 8.87175 53.8107 8.52875 53.0127 7.84275C52.2287 7.15675 51.8367 6.00875 51.8367 4.39875C51.8367 3.78275 51.9697 3.15975 52.2357 2.52975C52.5157 1.88575 52.9917 1.33975 53.6637 0.891746C54.3497 0.443746 55.2597 0.219746 56.3937 0.219746C58.0037 0.219746 59.2077 0.772746 60.0057 1.87875C60.8177 2.97075 61.2237 4.55975 61.2237 6.64575C61.2237 8.31175 60.9437 9.63475 60.3837 10.6147C59.8377 11.5947 59.1587 12.2737 58.3467 12.6517C57.5487 13.0297 56.7087 13.2187 55.8267 13.2187C55.2247 13.2187 54.6717 13.1487 54.1677 13.0087C53.6637 12.8687 53.2437 12.7147 52.9077 12.5467C52.5857 12.3647 52.4247 12.2667 52.4247 12.2527L53.2017 11.0347ZM56.2467 1.64775C55.3787 1.64775 54.7137 1.93475 54.2517 2.50875C53.7897 3.06875 53.5587 3.78275 53.5587 4.65075C53.5587 5.44875 53.7687 6.11375 54.1887 6.64575C54.6227 7.17775 55.2387 7.44375 56.0367 7.44375C56.8907 7.44375 57.5977 7.28975 58.1577 6.98175C58.7317 6.65975 59.1377 6.22575 59.3757 5.67975C59.2917 4.08375 58.9697 3.01275 58.4097 2.46675C57.8497 1.92075 57.1287 1.64775 56.2467 1.64775Z" fill="#292D34"/>
<path d="M62.6349 11.2237C63.3489 10.5797 64.3639 9.71875 65.6799 8.64075C66.8139 7.71675 67.5979 7.04475 68.0319 6.62475C68.5639 6.12075 68.9559 5.65175 69.2079 5.21775C69.4739 4.78375 69.6069 4.32875 69.6069 3.85275C69.6069 3.15275 69.3689 2.61375 68.8929 2.23575C68.4309 1.85775 67.8429 1.66875 67.1289 1.66875C66.6249 1.66875 66.1069 1.77375 65.5749 1.98375C65.0569 2.17975 64.5949 2.47375 64.1889 2.86575L63.1389 1.87875C63.6849 1.29075 64.3149 0.849746 65.0289 0.555747C65.7569 0.261746 66.4989 0.114746 67.2549 0.114746C67.9969 0.114746 68.6829 0.254746 69.3129 0.534746C69.9429 0.814746 70.4469 1.22775 70.8249 1.77375C71.2029 2.30575 71.3919 2.94275 71.3919 3.68475C71.3919 4.30075 71.1959 4.92375 70.8039 5.55375C70.4259 6.16975 69.8729 6.82075 69.1449 7.50675C68.6269 7.99675 67.7379 8.75975 66.4779 9.79575C65.5819 10.5237 64.9169 11.0767 64.4829 11.4547H70.2369L71.3289 9.71175L72.5259 10.3417L71.0349 12.9037H63.2019L62.6349 11.2237Z" fill="#292D34"/>
<path d="M81.5968 7.94775C81.5968 9.61375 81.2188 10.9087 80.4628 11.8327C79.7068 12.7427 78.6568 13.1977 77.3128 13.1977C76.4028 13.1977 75.4298 12.9947 74.3938 12.5887L73.8688 9.94275L75.2968 9.60675L75.7378 11.4757C76.3118 11.7137 76.8508 11.8327 77.3548 11.8327C78.1528 11.8327 78.7758 11.5177 79.2238 10.8877C79.6718 10.2437 79.8958 9.31975 79.8958 8.11575L79.9168 1.98375H77.1448V0.534746H83.5708V1.98375H81.5968V7.94775Z" fill="#292D34"/>
<path d="M89.1807 0.534746H90.2307L90.1887 11.4547H93.4647V12.9037H85.0647V11.4547H88.5507L88.5717 2.99175L85.5687 5.46975L84.6447 4.33575L89.1807 0.534746Z" fill="#292D34"/>
</g>
</svg>
