<svg width="19" height="17" viewBox="0 0 19 17" fill="none" xmlns="http://www.w3.org/2000/svg">
<path d="M17.8667 10.0039H16.187V16C16.187 16.2214 16.1219 16.4427 15.9917 16.6641C15.8615 16.8854 15.5946 16.9961 15.1909 16.9961H11.187V11H7.20264V16.9961H3.19873C2.79508 16.9961 2.52816 16.8854 2.39795 16.6641C2.26774 16.4427 2.20264 16.2214 2.20264 16V10.0039H0.522949C0.22347 10.0039 0.0867513 9.93229 0.112793 9.78906C0.138835 9.64583 0.256022 9.47005 0.464355 9.26172L8.4917 1.21484C8.58285 1.1237 8.68701 1.05208 8.8042 1C8.93441 0.947917 9.06462 0.915365 9.19482 0.902344C9.32503 0.915365 9.44873 0.947917 9.56592 1C9.69613 1.03906 9.8068 1.11068 9.89795 1.21484L17.9253 9.24219C18.1336 9.46354 18.2508 9.64583 18.2769 9.78906C18.3029 9.93229 18.1662 10.0039 17.8667 10.0039Z" fill="white"/>
</svg>
