<svg width="18" height="18" viewBox="0 0 18 18" fill="none" xmlns="http://www.w3.org/2000/svg">
<path d="M10.7143 15.2856H13.5714" stroke="#292D34" stroke-width="1.5" stroke-miterlimit="10"/>
<path d="M2.71429 4.42871V7.28585" stroke="#292D34" stroke-width="1.5" stroke-miterlimit="10"/>
<path d="M4.42856 9H7.2857" stroke="#292D34" stroke-width="1.5" stroke-miterlimit="10"/>
<path d="M9 10.7144V13.5715" stroke="#292D34" stroke-width="1.5" stroke-miterlimit="10"/>
<path d="M2.71429 4.42857C3.66106 4.42857 4.42857 3.66106 4.42857 2.71429C4.42857 1.76751 3.66106 1 2.71429 1C1.76751 1 1 1.76751 1 2.71429C1 3.66106 1.76751 4.42857 2.71429 4.42857Z" stroke="#292D34" stroke-width="1.5" stroke-miterlimit="10" stroke-linecap="square"/>
<path d="M2.71429 10.7142C3.66106 10.7142 4.42857 9.9467 4.42857 8.99993C4.42857 8.05316 3.66106 7.28564 2.71429 7.28564C1.76751 7.28564 1 8.05316 1 8.99993C1 9.9467 1.76751 10.7142 2.71429 10.7142Z" stroke="#292D34" stroke-width="1.5" stroke-miterlimit="10" stroke-linecap="square"/>
<path d="M8.99999 10.7142C9.94677 10.7142 10.7143 9.9467 10.7143 8.99993C10.7143 8.05316 9.94677 7.28564 8.99999 7.28564C8.05322 7.28564 7.28571 8.05316 7.28571 8.99993C7.28571 9.9467 8.05322 10.7142 8.99999 10.7142Z" stroke="#292D34" stroke-width="1.5" stroke-miterlimit="10" stroke-linecap="square"/>
<path d="M8.99999 16.9999C9.94677 16.9999 10.7143 16.2323 10.7143 15.2856C10.7143 14.3388 9.94677 13.5713 8.99999 13.5713C8.05322 13.5713 7.28571 14.3388 7.28571 15.2856C7.28571 16.2323 8.05322 16.9999 8.99999 16.9999Z" stroke="#292D34" stroke-width="1.5" stroke-miterlimit="10" stroke-linecap="square"/>
<path d="M15.2857 16.9999C16.2325 16.9999 17 16.2323 17 15.2856C17 14.3388 16.2325 13.5713 15.2857 13.5713C14.339 13.5713 13.5714 14.3388 13.5714 15.2856C13.5714 16.2323 14.339 16.9999 15.2857 16.9999Z" stroke="#292D34" stroke-width="1.5" stroke-miterlimit="10" stroke-linecap="square"/>
<path d="M8.99999 4.42857C9.94677 4.42857 10.7143 3.66106 10.7143 2.71429C10.7143 1.76751 9.94677 1 8.99999 1C8.05322 1 7.28571 1.76751 7.28571 2.71429C7.28571 3.66106 8.05322 4.42857 8.99999 4.42857Z" stroke="#292D34" stroke-width="1.5" stroke-miterlimit="10" stroke-linecap="square"/>
<path d="M15.2857 4.42857C16.2325 4.42857 17 3.66106 17 2.71429C17 1.76751 16.2325 1 15.2857 1C14.339 1 13.5714 1.76751 13.5714 2.71429C13.5714 3.66106 14.339 4.42857 15.2857 4.42857Z" stroke="#292D34" stroke-width="1.5" stroke-miterlimit="10" stroke-linecap="square"/>
<path d="M15.2857 10.7142C16.2325 10.7142 17 9.9467 17 8.99993C17 8.05316 16.2325 7.28564 15.2857 7.28564C14.339 7.28564 13.5714 8.05316 13.5714 8.99993C13.5714 9.9467 14.339 10.7142 15.2857 10.7142Z" stroke="#292D34" stroke-width="1.5" stroke-miterlimit="10" stroke-linecap="square"/>
<path d="M2.71429 16.9999C3.66106 16.9999 4.42857 16.2323 4.42857 15.2856C4.42857 14.3388 3.66106 13.5713 2.71429 13.5713C1.76751 13.5713 1 14.3388 1 15.2856C1 16.2323 1.76751 16.9999 2.71429 16.9999Z" stroke="#292D34" stroke-width="1.5" stroke-miterlimit="10" stroke-linecap="square"/>
</svg>
