<svg width="1078" height="200" viewBox="0 0 1078 200" fill="none" xmlns="http://www.w3.org/2000/svg">
<path d="M116.437 96.0464V98.3491H118.212V99.606H116.437V105.503C116.437 105.884 116.516 106.171 116.674 106.365C116.832 106.552 117.102 106.646 117.482 106.646C117.67 106.646 117.928 106.611 118.256 106.541V107.859C117.828 107.976 117.412 108.035 117.008 108.035C116.281 108.035 115.733 107.815 115.364 107.375C114.995 106.936 114.811 106.312 114.811 105.503V99.606H113.079V98.3491H114.811V96.0464H116.437Z" fill="#CE7A58"/>
<path d="M121.745 99.5005C122.466 98.6157 123.403 98.1733 124.558 98.1733C126.567 98.1733 127.581 99.3071 127.599 101.575V107.859H125.973V101.566C125.967 100.88 125.809 100.374 125.498 100.045C125.193 99.7173 124.716 99.5532 124.065 99.5532C123.538 99.5532 123.075 99.6938 122.677 99.9751C122.278 100.256 121.968 100.625 121.745 101.083V107.859H120.119V94.3589H121.745V99.5005Z" fill="#CE7A58"/>
<path d="M140.185 97.5933C140.185 98.6479 139.968 99.3921 139.534 99.8257C139.106 100.253 138.424 100.479 137.486 100.502V107.859H135.939L135.904 106.918C135.271 107.663 134.343 108.035 133.118 108.035C132.104 108.035 131.331 107.742 130.798 107.156C130.271 106.564 130.004 105.691 129.998 104.537V98.3491H131.624V104.493C131.624 105.934 132.21 106.655 133.382 106.655C134.624 106.655 135.45 106.192 135.86 105.266V98.3491H137.486V99.5005C137.885 99.4888 138.184 99.4331 138.383 99.3335C138.582 99.228 138.723 99.0698 138.805 98.8589C138.893 98.6479 138.937 98.2261 138.937 97.5933H140.185ZM132.731 110.012C132.731 109.749 132.811 109.526 132.969 109.344C133.133 109.163 133.373 109.072 133.689 109.072C134.006 109.072 134.246 109.163 134.41 109.344C134.574 109.526 134.656 109.749 134.656 110.012C134.656 110.276 134.574 110.496 134.41 110.671C134.246 110.847 134.006 110.935 133.689 110.935C133.373 110.935 133.133 110.847 132.969 110.671C132.811 110.496 132.731 110.276 132.731 110.012Z" fill="#CE7A58"/>
<path d="M144.992 106.708C145.572 106.708 146.079 106.532 146.513 106.18C146.946 105.829 147.187 105.389 147.233 104.862H148.771C148.742 105.407 148.555 105.925 148.209 106.417C147.863 106.91 147.4 107.302 146.82 107.595C146.246 107.888 145.637 108.035 144.992 108.035C143.697 108.035 142.666 107.604 141.898 106.743C141.137 105.875 140.756 104.692 140.756 103.192V102.919C140.756 101.994 140.926 101.17 141.266 100.45C141.605 99.729 142.092 99.1694 142.725 98.771C143.363 98.3726 144.116 98.1733 144.983 98.1733C146.05 98.1733 146.935 98.4927 147.638 99.1313C148.347 99.77 148.725 100.599 148.771 101.619H147.233C147.187 101.003 146.952 100.5 146.53 100.107C146.114 99.7085 145.599 99.5093 144.983 99.5093C144.157 99.5093 143.516 99.8081 143.059 100.406C142.607 100.998 142.382 101.856 142.382 102.981V103.289C142.382 104.384 142.607 105.228 143.059 105.82C143.51 106.412 144.154 106.708 144.992 106.708Z" fill="#CE7A58"/>
<path d="M156.69 99.5005C157.411 98.6157 158.349 98.1733 159.503 98.1733C161.513 98.1733 162.526 99.3071 162.544 101.575V107.859H160.918V101.566C160.912 100.88 160.754 100.374 160.443 100.045C160.139 99.7173 159.661 99.5532 159.011 99.5532C158.483 99.5532 158.021 99.6938 157.622 99.9751C157.224 100.256 156.913 100.625 156.69 101.083V107.859H155.064V94.3589H156.69V99.5005Z" fill="#CE7A58"/>
<path d="M166.745 107.859H165.119V98.3491H166.745V107.859ZM164.987 95.8267C164.987 95.563 165.066 95.3403 165.225 95.1587C165.389 94.9771 165.629 94.8862 165.945 94.8862C166.262 94.8862 166.502 94.9771 166.666 95.1587C166.83 95.3403 166.912 95.563 166.912 95.8267C166.912 96.0903 166.83 96.3101 166.666 96.4858C166.502 96.6616 166.262 96.7495 165.945 96.7495C165.629 96.7495 165.389 96.6616 165.225 96.4858C165.066 96.3101 164.987 96.0903 164.987 95.8267Z" fill="#CE7A58"/>
<path d="M173.302 108.035C172.013 108.035 170.964 107.613 170.155 106.769C169.347 105.919 168.942 104.786 168.942 103.368V103.069C168.942 102.125 169.121 101.285 169.479 100.546C169.842 99.8022 170.346 99.2222 170.99 98.8062C171.641 98.3843 172.344 98.1733 173.1 98.1733C174.336 98.1733 175.297 98.5806 175.982 99.395C176.668 100.209 177.011 101.375 177.011 102.893V103.57H170.568C170.592 104.507 170.864 105.266 171.386 105.846C171.913 106.42 172.581 106.708 173.39 106.708C173.964 106.708 174.45 106.59 174.849 106.356C175.247 106.122 175.596 105.811 175.895 105.424L176.888 106.198C176.091 107.422 174.896 108.035 173.302 108.035ZM173.1 99.5093C172.443 99.5093 171.893 99.7495 171.447 100.23C171.002 100.705 170.727 101.373 170.621 102.234H175.385V102.111C175.338 101.285 175.115 100.646 174.717 100.195C174.318 99.7378 173.779 99.5093 173.1 99.5093ZM175.754 96.7671V96.855H174.409L173.091 95.3608L171.781 96.855H170.437V96.7495L172.599 94.3589H173.583L175.754 96.7671ZM172.098 110.012C172.098 109.749 172.177 109.526 172.335 109.344C172.499 109.163 172.739 109.072 173.056 109.072C173.372 109.072 173.612 109.163 173.776 109.344C173.94 109.526 174.022 109.749 174.022 110.012C174.022 110.276 173.94 110.496 173.776 110.671C173.612 110.847 173.372 110.935 173.056 110.935C172.739 110.935 172.499 110.847 172.335 110.671C172.177 110.496 172.098 110.276 172.098 110.012Z" fill="#CE7A58"/>
<path d="M180.438 98.3491L180.491 99.5444C181.218 98.6304 182.167 98.1733 183.339 98.1733C185.349 98.1733 186.362 99.3071 186.38 101.575V107.859H184.754V101.566C184.748 100.88 184.59 100.374 184.279 100.045C183.975 99.7173 183.497 99.5532 182.847 99.5532C182.319 99.5532 181.856 99.6938 181.458 99.9751C181.06 100.256 180.749 100.625 180.526 101.083V107.859H178.9V98.3491H180.438Z" fill="#CE7A58"/>
<path d="M113.835 124.025C113.835 122.566 114.181 121.394 114.872 120.509C115.563 119.619 116.469 119.173 117.588 119.173C118.701 119.173 119.583 119.554 120.233 120.316V115.359H121.859V128.859H120.365L120.286 127.839C119.636 128.636 118.73 129.035 117.57 129.035C116.469 129.035 115.569 128.583 114.872 127.681C114.181 126.779 113.835 125.601 113.835 124.148V124.025ZM115.461 124.209C115.461 125.288 115.684 126.131 116.129 126.741C116.574 127.35 117.189 127.655 117.975 127.655C119.006 127.655 119.759 127.192 120.233 126.266V121.898C119.747 121.001 119 120.553 117.992 120.553C117.195 120.553 116.574 120.861 116.129 121.476C115.684 122.091 115.461 123.002 115.461 124.209Z" fill="#CE7A58"/>
<path d="M126.157 128.859H124.531V119.349H126.157V128.859ZM124.399 116.827C124.399 116.563 124.479 116.34 124.637 116.159C124.801 115.977 125.041 115.886 125.357 115.886C125.674 115.886 125.914 115.977 126.078 116.159C126.242 116.34 126.324 116.563 126.324 116.827C126.324 117.09 126.242 117.31 126.078 117.486C125.914 117.662 125.674 117.75 125.357 117.75C125.041 117.75 124.801 117.662 124.637 117.486C124.479 117.31 124.399 117.09 124.399 116.827ZM124.329 130.924C124.329 130.661 124.408 130.438 124.566 130.256C124.73 130.075 124.971 129.984 125.287 129.984C125.604 129.984 125.844 130.075 126.008 130.256C126.172 130.438 126.254 130.661 126.254 130.924C126.254 131.188 126.172 131.408 126.008 131.583C125.844 131.759 125.604 131.847 125.287 131.847C124.971 131.847 124.73 131.759 124.566 131.583C124.408 131.408 124.329 131.188 124.329 130.924Z" fill="#CE7A58"/>
<path d="M132.582 127.708C133.162 127.708 133.669 127.532 134.103 127.18C134.536 126.829 134.776 126.389 134.823 125.862H136.361C136.332 126.407 136.145 126.925 135.799 127.417C135.453 127.91 134.99 128.302 134.41 128.595C133.836 128.888 133.227 129.035 132.582 129.035C131.287 129.035 130.256 128.604 129.488 127.743C128.727 126.875 128.346 125.692 128.346 124.192V123.919C128.346 122.994 128.516 122.17 128.855 121.45C129.195 120.729 129.682 120.169 130.314 119.771C130.953 119.373 131.706 119.173 132.573 119.173C133.64 119.173 134.524 119.493 135.228 120.131C135.937 120.77 136.314 121.599 136.361 122.619H134.823C134.776 122.003 134.542 121.5 134.12 121.107C133.704 120.708 133.188 120.509 132.573 120.509C131.747 120.509 131.105 120.808 130.648 121.406C130.197 121.998 129.972 122.856 129.972 123.981V124.289C129.972 125.384 130.197 126.228 130.648 126.82C131.1 127.412 131.744 127.708 132.582 127.708Z" fill="#CE7A58"/>
<path d="M139.815 120.5C140.536 119.616 141.474 119.173 142.628 119.173C144.638 119.173 145.651 120.307 145.669 122.575V128.859H144.043V122.566C144.037 121.88 143.879 121.374 143.568 121.045C143.264 120.717 142.786 120.553 142.136 120.553C141.608 120.553 141.146 120.694 140.747 120.975C140.349 121.256 140.038 121.625 139.815 122.083V128.859H138.189V115.359H139.815V120.5Z" fill="#CE7A58"/>
<path d="M155.706 126.653L158.062 119.349H159.723L156.312 128.859H155.073L151.628 119.349H153.289L155.706 126.653Z" fill="#CE7A58"/>
<path d="M167.158 127.918C166.525 128.663 165.597 129.035 164.372 129.035C163.358 129.035 162.585 128.742 162.052 128.156C161.524 127.564 161.258 126.691 161.252 125.537V119.349H162.878V125.493C162.878 126.934 163.464 127.655 164.636 127.655C165.878 127.655 166.704 127.192 167.114 126.266V119.349H168.74V128.859H167.193L167.158 127.918ZM163.511 131.012C163.511 130.749 163.59 130.526 163.748 130.344C163.912 130.163 164.152 130.072 164.469 130.072C164.785 130.072 165.025 130.163 165.189 130.344C165.354 130.526 165.436 130.749 165.436 131.012C165.436 131.276 165.354 131.496 165.189 131.671C165.025 131.847 164.785 131.935 164.469 131.935C164.152 131.935 163.912 131.847 163.748 131.671C163.59 131.496 163.511 131.276 163.511 131.012Z" fill="#CE7A58"/>
<path d="M179.498 127.708C180.078 127.708 180.585 127.532 181.019 127.18C181.452 126.829 181.692 126.389 181.739 125.862H183.277C183.248 126.407 183.061 126.925 182.715 127.417C182.369 127.91 181.906 128.302 181.326 128.595C180.752 128.888 180.143 129.035 179.498 129.035C178.203 129.035 177.172 128.604 176.404 127.743C175.643 126.875 175.262 125.692 175.262 124.192V123.919C175.262 122.994 175.432 122.17 175.771 121.45C176.111 120.729 176.598 120.169 177.23 119.771C177.869 119.373 178.622 119.173 179.489 119.173C180.556 119.173 181.44 119.493 182.144 120.131C182.853 120.77 183.23 121.599 183.277 122.619H181.739C181.692 122.003 181.458 121.5 181.036 121.107C180.62 120.708 180.104 120.509 179.489 120.509C178.663 120.509 178.021 120.808 177.564 121.406C177.113 121.998 176.888 122.856 176.888 123.981V124.289C176.888 125.384 177.113 126.228 177.564 126.82C178.016 127.412 178.66 127.708 179.498 127.708Z" fill="#CE7A58"/>
<path d="M184.675 124.016C184.675 123.084 184.856 122.247 185.22 121.502C185.589 120.758 186.099 120.184 186.749 119.78C187.405 119.375 188.152 119.173 188.99 119.173C190.285 119.173 191.331 119.622 192.128 120.518C192.931 121.415 193.332 122.607 193.332 124.095V124.209C193.332 125.135 193.153 125.967 192.796 126.706C192.444 127.438 191.938 128.009 191.275 128.419C190.619 128.83 189.863 129.035 189.008 129.035C187.719 129.035 186.673 128.586 185.87 127.69C185.073 126.793 184.675 125.607 184.675 124.13V124.016ZM186.31 124.209C186.31 125.264 186.553 126.111 187.039 126.75C187.531 127.388 188.188 127.708 189.008 127.708C189.834 127.708 190.49 127.385 190.977 126.741C191.463 126.09 191.706 125.182 191.706 124.016C191.706 122.973 191.457 122.129 190.959 121.485C190.467 120.834 189.811 120.509 188.99 120.509C188.188 120.509 187.54 120.829 187.048 121.467C186.556 122.106 186.31 123.02 186.31 124.209ZM191.592 117.767V117.855H190.247L188.929 116.361L187.619 117.855H186.274V117.75L188.437 115.359H189.421L191.592 117.767Z" fill="#CE7A58"/>
<path d="M196.909 119.349L196.962 120.544C197.688 119.63 198.638 119.173 199.81 119.173C201.819 119.173 202.833 120.307 202.851 122.575V128.859H201.225V122.566C201.219 121.88 201.061 121.374 200.75 121.045C200.445 120.717 199.968 120.553 199.317 120.553C198.79 120.553 198.327 120.694 197.929 120.975C197.53 121.256 197.22 121.625 196.997 122.083V128.859H195.371V119.349H196.909Z" fill="#CE7A58"/>
<path d="M204.916 124.025C204.916 122.542 205.259 121.365 205.944 120.492C206.63 119.613 207.538 119.173 208.669 119.173C209.829 119.173 210.734 119.583 211.385 120.404L211.464 119.349H212.949V128.63C212.949 129.861 212.583 130.831 211.851 131.54C211.124 132.249 210.146 132.603 208.915 132.603C208.229 132.603 207.559 132.457 206.902 132.164C206.246 131.871 205.745 131.469 205.399 130.959L206.243 129.984C206.94 130.845 207.793 131.276 208.801 131.276C209.592 131.276 210.207 131.053 210.646 130.608C211.092 130.163 211.314 129.536 211.314 128.727V127.91C210.664 128.66 209.776 129.035 208.651 129.035C207.538 129.035 206.636 128.586 205.944 127.69C205.259 126.793 204.916 125.572 204.916 124.025ZM206.551 124.209C206.551 125.282 206.771 126.125 207.21 126.741C207.649 127.35 208.265 127.655 209.056 127.655C210.081 127.655 210.834 127.189 211.314 126.257V121.916C210.816 121.007 210.069 120.553 209.073 120.553C208.282 120.553 207.664 120.861 207.219 121.476C206.773 122.091 206.551 123.002 206.551 124.209Z" fill="#CE7A58"/>
<path d="M11.2588 73.8735C11.2588 75.1099 11.0625 76.1763 10.6699 77.0728C10.2773 77.9634 9.72656 78.6606 9.01758 79.1646L11.3027 80.9575L10.1514 82.021L7.45312 79.8765C7.03125 79.9819 6.58594 80.0347 6.11719 80.0347C5.10938 80.0347 4.21582 79.7886 3.43652 79.2964C2.65723 78.7983 2.05078 78.0923 1.61719 77.1782C1.18945 76.2583 0.969727 75.1948 0.958008 73.9878V73.0649C0.958008 71.8345 1.17188 70.7476 1.59961 69.8042C2.02734 68.8608 2.63086 68.1401 3.41016 67.6421C4.19531 67.1382 5.0918 66.8862 6.09961 66.8862C7.13086 66.8862 8.03613 67.1353 8.81543 67.6333C9.60059 68.1313 10.2041 68.8491 10.626 69.7866C11.0479 70.7183 11.2588 71.8081 11.2588 73.0562V73.8735ZM9.57129 73.0474C9.57129 71.5415 9.26953 70.3813 8.66602 69.5669C8.06836 68.7466 7.21289 68.3364 6.09961 68.3364C5.03906 68.3364 4.20117 68.7437 3.58594 69.5581C2.97656 70.3667 2.66309 71.4917 2.64551 72.9331V73.8735C2.64551 75.3384 2.9502 76.4927 3.55957 77.3364C4.1748 78.1802 5.02734 78.6021 6.11719 78.6021C7.20703 78.6021 8.05078 78.2065 8.64844 77.4155C9.24609 76.6187 9.55371 75.479 9.57129 73.9966V73.0474Z" fill="#903938"/>
<path d="M19.4766 78.9185C18.8438 79.6626 17.915 80.0347 16.6904 80.0347C15.6768 80.0347 14.9033 79.7417 14.3701 79.1558C13.8428 78.564 13.5762 77.6909 13.5703 76.5366V70.3491H15.1963V76.4927C15.1963 77.9341 15.7822 78.6548 16.9541 78.6548C18.1963 78.6548 19.0225 78.1919 19.4326 77.2661V70.3491H21.0586V79.8589H19.5117L19.4766 78.9185Z" fill="#903938"/>
<path d="M26.6484 77.4771L28.8633 70.3491H30.6035L26.7803 81.3267C26.1885 82.9087 25.248 83.6997 23.959 83.6997L23.6514 83.6733L23.0449 83.5591V82.2407L23.4844 82.2759C24.0352 82.2759 24.4629 82.1646 24.7676 81.9419C25.0781 81.7192 25.333 81.312 25.5322 80.7202L25.8926 79.7534L22.5 70.3491H24.2754L26.6484 77.4771Z" fill="#903938"/>
<path d="M38.7334 68.0464V70.3491H40.5088V71.606H38.7334V77.5034C38.7334 77.8843 38.8125 78.1714 38.9707 78.3647C39.1289 78.5522 39.3984 78.646 39.7793 78.646C39.9668 78.646 40.2246 78.6108 40.5527 78.5405V79.8589C40.125 79.9761 39.709 80.0347 39.3047 80.0347C38.5781 80.0347 38.0303 79.8149 37.6611 79.3755C37.292 78.936 37.1074 78.312 37.1074 77.5034V71.606H35.376V70.3491H37.1074V68.0464H38.7334Z" fill="#903938"/>
<path d="M47.0127 71.8081C46.7666 71.7671 46.5 71.7466 46.2129 71.7466C45.1465 71.7466 44.4229 72.2007 44.042 73.1089V79.8589H42.416V70.3491H43.998L44.0244 71.4478C44.5576 70.5981 45.3135 70.1733 46.292 70.1733C46.6084 70.1733 46.8486 70.2144 47.0127 70.2964V71.8081Z" fill="#903938"/>
<path d="M50.2822 79.8589H48.6475V70.3491H50.2822V79.8589ZM50.4404 68.9517H49.043L46.7754 66.3677H48.7354L50.4404 68.9517Z" fill="#903938"/>
<path d="M54.501 70.3491L54.5537 71.5444C55.2803 70.6304 56.2295 70.1733 57.4014 70.1733C59.4111 70.1733 60.4248 71.3071 60.4424 73.5747V79.8589H58.8164V73.5659C58.8105 72.8804 58.6523 72.3735 58.3418 72.0454C58.0371 71.7173 57.5596 71.5532 56.9092 71.5532C56.3818 71.5532 55.9189 71.6938 55.5205 71.9751C55.1221 72.2563 54.8115 72.6255 54.5889 73.0825V79.8589H52.9629V70.3491H54.501Z" fill="#903938"/>
<path d="M64.5205 71.5005C65.2412 70.6157 66.1787 70.1733 67.333 70.1733C69.3428 70.1733 70.3564 71.3071 70.374 73.5747V79.8589H68.748V73.5659C68.7422 72.8804 68.584 72.3735 68.2734 72.0454C67.9688 71.7173 67.4912 71.5532 66.8408 71.5532C66.3135 71.5532 65.8506 71.6938 65.4521 71.9751C65.0537 72.2563 64.7432 72.6255 64.5205 73.0825V79.8589H62.8945V66.3589H64.5205V71.5005Z" fill="#903938"/>
<path d="M93.6855 119.549H104.141V127.365H93.6855V144.859H84.0586V127.365H49.7432V121.723L83.4893 69.4995H93.6855V119.549ZM60.6123 119.549H84.0586V82.5942L82.9199 84.6646L60.6123 119.549Z" fill="#903938"/>
<path d="M318.002 50.3058C326.018 42.309 336.067 36.119 347.669 32.6306C385.22 21.3399 424.815 42.6285 436.105 80.18C447.396 117.732 426.108 157.326 388.556 168.617C360.159 177.155 330.593 167.062 312.983 145.394" stroke="#CE7A58" stroke-width="2"/>
<path d="M355.859 74.7336C355.859 72.8704 356.21 71.1213 356.914 69.4866C357.634 67.8518 358.601 66.428 359.814 65.2151C361.044 63.9846 362.477 63.0178 364.112 62.3147C365.747 61.594 367.496 61.2336 369.359 61.2336C371.222 61.2336 372.971 61.594 374.606 62.3147C376.241 63.0178 377.665 63.9846 378.877 65.2151C380.108 66.428 381.075 67.8518 381.778 69.4866C382.499 71.1213 382.859 72.8704 382.859 74.7336C382.859 76.5969 382.499 78.3459 381.778 79.9807C381.075 81.6155 380.108 83.0481 378.877 84.2786C377.665 85.4915 376.241 86.4495 374.606 87.1526C372.971 87.8733 371.222 88.2336 369.359 88.2336C367.496 88.2336 365.747 87.8733 364.112 87.1526C362.477 86.4495 361.044 85.4915 359.814 84.2786C358.601 83.0481 357.634 81.6155 356.914 79.9807C356.21 78.3459 355.859 76.5969 355.859 74.7336ZM361.501 83.9885C362.029 84.428 362.591 84.8235 363.189 85.175C363.804 85.5442 364.437 85.8518 365.087 86.0979C365.755 86.3616 366.45 86.5549 367.17 86.678C367.891 86.8186 368.621 86.8889 369.359 86.8889C370.115 86.8889 370.844 86.8186 371.547 86.678C372.268 86.5549 372.954 86.3704 373.604 86.1243C374.272 85.8782 374.905 85.5706 375.502 85.2014C376.118 84.8499 376.689 84.4456 377.216 83.9885C376.232 83.3206 375.344 82.7756 374.553 82.3538C373.78 81.9319 373.27 81.6594 373.024 81.5364C372.866 81.4661 372.743 81.3606 372.655 81.22C372.567 81.0618 372.523 80.9036 372.523 80.7454V78.7678C372.523 78.7151 372.523 78.6711 372.523 78.636C372.541 78.5833 372.558 78.5305 372.576 78.4778C372.699 78.2493 372.804 77.9944 372.892 77.7131C372.98 77.4319 373.05 77.1331 373.103 76.8167C373.121 76.7112 373.165 76.6145 373.235 76.5266C373.305 76.4387 373.393 76.3684 373.499 76.3157C373.551 76.2981 373.604 76.2893 373.657 76.2893C373.727 76.2717 373.797 76.2629 373.868 76.2629C373.903 76.1926 373.956 76.0784 374.026 75.9202C374.114 75.7444 374.202 75.4895 374.29 75.1555C374.395 74.7688 374.448 74.4875 374.448 74.3118C374.465 74.136 374.465 74.0217 374.448 73.969C374.307 73.8987 374.202 73.802 374.131 73.679C374.079 73.5383 374.07 73.3889 374.105 73.2307C374.369 71.8948 374.43 70.9192 374.29 70.304C374.167 69.6711 374.026 69.2405 373.868 69.012C373.727 68.8362 373.595 68.7307 373.472 68.6956C373.349 68.6428 373.288 68.6165 373.288 68.6165C373.182 68.5989 373.077 68.5637 372.971 68.511C372.866 68.4407 372.787 68.3528 372.734 68.2473C372.734 68.2473 372.646 68.1418 372.47 67.9309C372.312 67.7024 372.04 67.4739 371.653 67.2454C371.284 67.0344 370.897 66.8938 370.493 66.8235C370.088 66.7356 369.658 66.7092 369.201 66.7444C369.042 66.7444 368.875 66.762 368.7 66.7971C368.542 66.8147 368.392 66.8499 368.251 66.9026C368.058 66.9729 367.874 67.052 367.698 67.1399C367.522 67.2278 367.346 67.3333 367.17 67.4563C367.17 67.4563 367.162 67.4651 367.144 67.4827C366.933 67.6057 366.731 67.7463 366.538 67.9045C366.362 68.0627 366.186 68.2385 366.01 68.4319C365.694 68.7483 365.43 69.0823 365.219 69.4338C365.026 69.7854 364.885 70.1458 364.797 70.5149C364.692 70.9192 364.648 71.3147 364.666 71.7014C364.683 72.0881 364.762 72.4661 364.903 72.8352C364.938 72.9407 364.947 73.0549 364.929 73.178C364.912 73.2834 364.868 73.3801 364.797 73.468C364.727 73.5559 364.639 73.6262 364.534 73.679C364.446 73.7141 364.358 73.7317 364.27 73.7317C364.252 73.802 364.252 73.925 364.27 74.1008C364.288 74.2766 364.34 74.5315 364.428 74.8655C364.551 75.2874 364.657 75.5862 364.745 75.762C364.833 75.9202 364.894 76.0256 364.929 76.0784C365.052 76.1135 365.158 76.1838 365.246 76.2893C365.333 76.3772 365.386 76.4827 365.404 76.6057C365.474 77.01 365.562 77.3879 365.667 77.7395C365.791 78.0735 365.94 78.3899 366.116 78.6887C366.151 78.7415 366.177 78.803 366.195 78.8733C366.212 78.926 366.221 78.9788 366.221 79.0315V80.719C366.221 80.8948 366.168 81.053 366.063 81.1936C365.975 81.3342 365.861 81.4397 365.72 81.51C365.457 81.6506 364.938 81.9319 364.165 82.3538C363.391 82.7581 362.503 83.303 361.501 83.9885ZM369.359 62.5784C367.689 62.5784 366.116 62.9036 364.639 63.554C363.163 64.1868 361.871 65.0569 360.763 66.1643C359.673 67.2542 358.803 68.5374 358.153 70.0139C357.52 71.4905 357.204 73.0637 357.204 74.7336C357.204 75.5422 357.283 76.3245 357.441 77.0803C357.599 77.8362 357.819 78.5657 358.1 79.2688C358.381 79.9719 358.724 80.6399 359.128 81.2727C359.533 81.9055 359.99 82.4856 360.5 83.0129C361.449 82.3625 362.31 81.8176 363.083 81.3782C363.875 80.9387 364.463 80.6223 364.85 80.429V79.2161C364.692 78.9172 364.551 78.6008 364.428 78.2668C364.305 77.9153 364.208 77.5549 364.138 77.1858C363.892 76.9924 363.69 76.72 363.532 76.3684C363.374 75.9993 363.242 75.6213 363.136 75.2346C362.96 74.637 362.881 74.1448 362.899 73.7581C362.917 73.3538 363.031 73.0286 363.242 72.7825C363.259 72.7473 363.286 72.7209 363.321 72.7034C363.356 72.6682 363.391 72.6331 363.426 72.5979C363.338 72.1936 363.303 71.7981 363.321 71.4114C363.338 71.0071 363.4 70.6028 363.505 70.1985C363.611 69.7063 363.795 69.2317 364.059 68.7747C364.323 68.3176 364.648 67.887 365.035 67.4827C365.246 67.2717 365.465 67.0696 365.694 66.8762C365.922 66.6829 366.168 66.4983 366.432 66.3225C366.643 66.1819 366.863 66.05 367.091 65.927C367.337 65.804 367.575 65.7073 367.803 65.637H367.83C368.041 65.5491 368.251 65.4875 368.462 65.4524C368.691 65.4172 368.911 65.3909 369.122 65.3733C369.702 65.3206 370.264 65.3557 370.809 65.4788C371.354 65.5842 371.864 65.7776 372.338 66.0588C372.708 66.2698 373.006 66.4983 373.235 66.7444C373.481 66.9729 373.666 67.1663 373.789 67.3245C373.947 67.3772 374.131 67.4739 374.342 67.6145C374.553 67.7375 374.764 67.9309 374.975 68.1946C375.344 68.7043 375.573 69.3723 375.661 70.1985C375.766 71.0071 375.713 71.9651 375.502 73.0725C375.696 73.301 375.801 73.6174 375.819 74.0217C375.836 74.426 375.766 74.9182 375.608 75.4983C375.415 76.1311 375.212 76.6145 375.001 76.9485C374.808 77.2825 374.58 77.5022 374.316 77.6077C374.263 77.8362 374.193 78.0647 374.105 78.2932C374.035 78.5042 373.956 78.7151 373.868 78.926V80.429C374.254 80.6223 374.834 80.9387 375.608 81.3782C376.399 81.8176 377.269 82.3625 378.218 83.0129C378.728 82.4856 379.185 81.9055 379.589 81.2727C379.994 80.6399 380.336 79.9719 380.618 79.2688C380.899 78.5657 381.119 77.8362 381.277 77.0803C381.435 76.3245 381.514 75.5422 381.514 74.7336C381.514 73.0637 381.189 71.4905 380.539 70.0139C379.906 68.5374 379.036 67.2542 377.928 66.1643C376.838 65.0569 375.555 64.1868 374.079 63.554C372.602 62.9036 371.029 62.5784 369.359 62.5784Z" fill="#CE7A58"/>
<path d="M523.237 50.3058C531.253 42.309 541.302 36.119 552.904 32.6306C590.456 21.3399 630.05 42.6285 641.341 80.18C652.632 117.732 631.343 157.326 593.791 168.617C565.394 177.155 535.828 167.062 518.218 145.394" stroke="#CE7A58" stroke-width="2"/>
<path d="M526.702 122.859H492.231V118.053L510.442 97.8188C513.14 94.7596 514.995 92.2785 516.007 90.3755C517.042 88.4484 517.56 86.4611 517.56 84.4136C517.56 81.6675 516.729 79.4152 515.067 77.6567C513.405 75.8983 511.189 75.019 508.419 75.019C505.094 75.019 502.505 75.9705 500.65 77.8735C498.819 79.7524 497.904 82.3781 497.904 85.7505H491.219C491.219 80.9087 492.773 76.9943 495.881 74.0073C499.012 71.0203 503.191 69.5269 508.419 69.5269C513.309 69.5269 517.175 70.8156 520.017 73.3931C522.86 75.9465 524.281 79.355 524.281 83.6187C524.281 88.7977 520.981 94.9644 514.381 102.119L500.289 117.403H526.702V122.859Z" stroke="#CE7A58"/>
<path d="M575.515 69.2494C576.148 68.6166 576.772 67.9926 577.387 67.3774C578.002 66.7446 578.618 66.1205 579.233 65.5053C579.866 64.8725 580.49 64.2485 581.105 63.6332C581.738 63.018 582.362 62.394 582.977 61.7612C583.17 61.5678 583.381 61.4272 583.61 61.3393C583.838 61.2514 584.076 61.225 584.322 61.2602L584.401 61.2866C584.577 61.3041 584.761 61.3305 584.955 61.3657C585.148 61.4008 585.333 61.4535 585.508 61.5239C586.422 61.893 587.213 62.4116 587.881 63.0795C588.567 63.7299 589.112 64.5121 589.516 65.4262C589.569 65.5844 589.613 65.7426 589.648 65.9008C589.701 66.059 589.736 66.2084 589.753 66.3491C589.771 66.4018 589.789 66.4545 589.806 66.5073C589.824 66.56 589.833 66.6127 589.833 66.6655C589.85 66.7182 589.859 66.7621 589.859 66.7973C589.859 66.8324 589.859 66.8676 589.859 66.9028C589.841 67.1313 589.789 67.3422 589.701 67.5356C589.613 67.7289 589.481 67.9047 589.305 68.0629C588.233 69.1528 587.152 70.2426 586.062 71.3324C584.99 72.4047 583.909 73.4858 582.819 74.5756C581.747 75.6479 580.666 76.7289 579.576 77.8188C578.503 78.891 577.422 79.9721 576.333 81.0619C576.209 81.185 576.069 81.2905 575.911 81.3783C575.752 81.4487 575.585 81.5102 575.41 81.5629C574.636 81.7211 573.863 81.8793 573.089 82.0375C572.316 82.1957 571.551 82.3627 570.795 82.5385L569.82 82.7231C569.767 82.7407 569.714 82.7494 569.662 82.7494C569.626 82.7494 569.583 82.7494 569.53 82.7494C569.372 82.7494 569.213 82.7231 569.055 82.6703C568.915 82.6 568.783 82.5121 568.66 82.4067C568.519 82.266 568.414 82.0991 568.343 81.9057C568.291 81.6948 568.291 81.475 568.343 81.2465L568.528 80.3764C568.704 79.5854 568.871 78.7944 569.029 78.0033C569.205 77.1948 569.38 76.3949 569.556 75.6039C569.591 75.4457 569.644 75.2963 569.714 75.1557C569.802 74.9975 569.899 74.8657 570.004 74.7602C570.497 74.268 570.98 73.7846 571.455 73.31C571.947 72.8178 572.43 72.3344 572.905 71.8598L575.515 69.2494ZM584.137 62.6049C584.12 62.6049 584.093 62.6137 584.058 62.6313C584.041 62.6313 584.005 62.6576 583.953 62.7104C583.32 63.3256 582.687 63.9496 582.054 64.5824C581.439 65.1977 580.815 65.8217 580.182 66.4545C579.567 67.0698 578.952 67.6938 578.336 68.3266C577.721 68.9418 577.097 69.5658 576.464 70.1987L573.854 72.809C573.362 73.2836 572.878 73.767 572.404 74.2592C571.929 74.7338 571.455 75.2084 570.98 75.683C570.945 75.7182 570.918 75.7533 570.901 75.7885C570.883 75.8237 570.875 75.85 570.875 75.8676C570.699 76.6586 570.523 77.4584 570.347 78.267C570.189 79.058 570.022 79.8491 569.846 80.6401L569.688 81.352L570.505 81.1938C571.279 81.0356 572.052 80.8774 572.826 80.7192C573.599 80.5434 574.373 80.3764 575.146 80.2182C575.199 80.2006 575.243 80.183 575.278 80.1655C575.313 80.1479 575.348 80.1215 575.383 80.0864C576.473 78.9965 577.554 77.9155 578.626 76.8432C579.716 75.7533 580.797 74.6723 581.87 73.6C582.959 72.5102 584.041 71.4291 585.113 70.3569C586.203 69.267 587.292 68.186 588.382 67.1137C588.417 67.0785 588.444 67.0434 588.461 67.0082C588.479 66.9555 588.497 66.9116 588.514 66.8764C588.497 66.8237 588.479 66.7797 588.461 66.7446C588.461 66.6918 588.461 66.6479 588.461 66.6127C588.426 66.4897 588.391 66.3754 588.356 66.2699C588.338 66.1469 588.312 66.0414 588.277 65.9535C587.943 65.1977 587.503 64.5561 586.958 64.0287C586.414 63.4838 585.763 63.0619 585.007 62.7631C584.902 62.7104 584.788 62.6752 584.665 62.6576C584.542 62.6401 584.41 62.6225 584.269 62.6049H584.137ZM564.995 67.2455C564.784 67.2455 564.599 67.3246 564.441 67.4828C564.283 67.641 564.204 67.8256 564.204 68.0366V86.0717C564.204 86.2826 564.283 86.4672 564.441 86.6254C564.599 86.7836 564.784 86.8627 564.995 86.8627H583.03C583.241 86.8627 583.425 86.7836 583.583 86.6254C583.742 86.4672 583.821 86.2826 583.821 86.0717V76.8432C583.821 76.6674 583.882 76.518 584.005 76.3949C584.146 76.2543 584.304 76.184 584.48 76.184C584.673 76.184 584.832 76.2543 584.955 76.3949C585.095 76.518 585.166 76.6674 585.166 76.8432V86.0717C585.166 86.6694 584.955 87.1703 584.533 87.5746C584.111 87.9965 583.61 88.2074 583.03 88.2074H564.995C564.415 88.2074 563.914 87.9965 563.492 87.5746C563.07 87.1703 562.859 86.6694 562.859 86.0717V68.0366C562.859 67.4565 563.07 66.9555 563.492 66.5336C563.914 66.1117 564.415 65.9008 564.995 65.9008H574.619C574.812 65.9008 574.97 65.9711 575.093 66.1117C575.234 66.2348 575.304 66.393 575.304 66.5864C575.304 66.7621 575.234 66.9203 575.093 67.061C574.97 67.184 574.812 67.2455 574.619 67.2455H564.995Z" fill="#CE7A58"/>
<path d="M559.194 114.892L558.151 115.976V118.859H557.026V110.327H558.151V114.546L561.942 110.327H563.302L559.944 114.095L563.565 118.859H562.218L559.194 114.892Z" fill="#CE7A58"/>
<path d="M565.464 113.286C565.944 112.697 566.569 112.402 567.339 112.402C568.679 112.402 569.354 113.157 569.366 114.669V118.859H568.282V114.663C568.278 114.206 568.173 113.868 567.966 113.65C567.763 113.431 567.444 113.322 567.011 113.322C566.659 113.322 566.351 113.415 566.085 113.603C565.819 113.79 565.612 114.036 565.464 114.341V118.859H564.38V109.859H565.464V113.286Z" fill="#CE7A58"/>
<path d="M574.903 118.859C574.841 118.734 574.79 118.511 574.751 118.191C574.247 118.714 573.646 118.976 572.946 118.976C572.321 118.976 571.808 118.8 571.405 118.448C571.007 118.093 570.808 117.644 570.808 117.101C570.808 116.441 571.058 115.929 571.558 115.566C572.062 115.198 572.769 115.015 573.679 115.015H574.733V114.517C574.733 114.138 574.62 113.837 574.394 113.615C574.167 113.388 573.833 113.275 573.392 113.275C573.005 113.275 572.681 113.372 572.419 113.568C572.157 113.763 572.026 113.999 572.026 114.277H570.937C570.937 113.96 571.048 113.656 571.271 113.363C571.497 113.066 571.802 112.831 572.185 112.659C572.571 112.488 572.995 112.402 573.456 112.402C574.187 112.402 574.759 112.585 575.173 112.952C575.587 113.316 575.802 113.818 575.817 114.458V117.376C575.817 117.958 575.892 118.421 576.04 118.765V118.859H574.903ZM573.104 118.032C573.444 118.032 573.767 117.945 574.071 117.769C574.376 117.593 574.597 117.365 574.733 117.083V115.782H573.884C572.556 115.782 571.892 116.171 571.892 116.948C571.892 117.288 572.005 117.554 572.231 117.745C572.458 117.937 572.749 118.032 573.104 118.032Z" fill="#CE7A58"/>
<path d="M578.694 118.859H577.61V112.519H578.694V118.859ZM577.522 110.837C577.522 110.661 577.575 110.513 577.681 110.392C577.79 110.271 577.95 110.21 578.161 110.21C578.372 110.21 578.532 110.271 578.642 110.392C578.751 110.513 578.806 110.661 578.806 110.837C578.806 111.013 578.751 111.159 578.642 111.277C578.532 111.394 578.372 111.452 578.161 111.452C577.95 111.452 577.79 111.394 577.681 111.277C577.575 111.159 577.522 111.013 577.522 110.837Z" fill="#CE7A58"/>
<path d="M588.778 115.759C588.778 116.728 588.556 117.507 588.11 118.097C587.665 118.683 587.067 118.976 586.317 118.976C585.517 118.976 584.897 118.693 584.46 118.126L584.407 118.859H583.411V109.859H584.495V113.216C584.933 112.673 585.536 112.402 586.306 112.402C587.075 112.402 587.679 112.693 588.116 113.275C588.558 113.857 588.778 114.654 588.778 115.665V115.759ZM587.694 115.636C587.694 114.898 587.552 114.327 587.267 113.925C586.981 113.523 586.571 113.322 586.036 113.322C585.321 113.322 584.808 113.654 584.495 114.318V117.06C584.827 117.724 585.345 118.056 586.048 118.056C586.567 118.056 586.972 117.855 587.261 117.452C587.55 117.05 587.694 116.445 587.694 115.636Z" fill="#CE7A58"/>
<path d="M594.063 118.859C594.001 118.734 593.95 118.511 593.911 118.191C593.407 118.714 592.806 118.976 592.106 118.976C591.481 118.976 590.968 118.8 590.565 118.448C590.167 118.093 589.968 117.644 589.968 117.101C589.968 116.441 590.218 115.929 590.718 115.566C591.222 115.198 591.929 115.015 592.839 115.015H593.894V114.517C593.894 114.138 593.78 113.837 593.554 113.615C593.327 113.388 592.993 113.275 592.552 113.275C592.165 113.275 591.841 113.372 591.579 113.568C591.317 113.763 591.187 113.999 591.187 114.277H590.097C590.097 113.96 590.208 113.656 590.431 113.363C590.657 113.066 590.962 112.831 591.345 112.659C591.731 112.488 592.155 112.402 592.616 112.402C593.347 112.402 593.919 112.585 594.333 112.952C594.747 113.316 594.962 113.818 594.978 114.458V117.376C594.978 117.958 595.052 118.421 595.2 118.765V118.859H594.063ZM592.265 118.032C592.604 118.032 592.927 117.945 593.231 117.769C593.536 117.593 593.757 117.365 593.894 117.083V115.782H593.044C591.716 115.782 591.052 116.171 591.052 116.948C591.052 117.288 591.165 117.554 591.392 117.745C591.618 117.937 591.909 118.032 592.265 118.032ZM593.267 109.859H594.579L593.009 111.581H592.136L593.267 109.859Z" fill="#CE7A58"/>
<path d="M596.39 115.63C596.39 115.009 596.511 114.45 596.753 113.954C596.999 113.458 597.339 113.075 597.772 112.806C598.21 112.536 598.708 112.402 599.267 112.402C600.13 112.402 600.827 112.7 601.358 113.298C601.894 113.896 602.161 114.691 602.161 115.683V115.759C602.161 116.376 602.042 116.931 601.804 117.423C601.569 117.911 601.231 118.292 600.79 118.566C600.353 118.839 599.849 118.976 599.278 118.976C598.419 118.976 597.722 118.677 597.187 118.079C596.655 117.482 596.39 116.691 596.39 115.706V115.63ZM597.479 115.759C597.479 116.462 597.642 117.027 597.966 117.452C598.294 117.878 598.731 118.091 599.278 118.091C599.829 118.091 600.267 117.876 600.591 117.447C600.915 117.013 601.077 116.407 601.077 115.63C601.077 114.935 600.911 114.372 600.579 113.943C600.251 113.509 599.813 113.292 599.267 113.292C598.731 113.292 598.3 113.505 597.972 113.931C597.644 114.357 597.479 114.966 597.479 115.759Z" fill="#CE7A58"/>
<path d="M535.469 131.665V133.462H536.774V134.693H535.469V138.822C535.469 139.104 535.523 139.309 535.633 139.437C535.747 139.56 535.947 139.622 536.234 139.622C536.426 139.622 536.619 139.599 536.815 139.553V140.838C536.437 140.943 536.073 140.996 535.722 140.996C534.446 140.996 533.808 140.292 533.808 138.883V134.693H532.591V133.462H533.808V131.665H535.469Z" fill="#903938"/>
<path d="M539.687 134.269C540.229 133.64 540.915 133.326 541.744 133.326C543.321 133.326 544.121 134.226 544.144 136.026V140.859H542.482V136.087C542.482 135.577 542.371 135.217 542.147 135.007C541.929 134.793 541.605 134.686 541.177 134.686C540.511 134.686 540.015 134.982 539.687 135.575V140.859H538.025V130.359H539.687V134.269Z" fill="#903938"/>
<path d="M545.518 137.092C545.518 136.368 545.661 135.716 545.948 135.137C546.235 134.554 546.639 134.107 547.158 133.797C547.678 133.483 548.275 133.326 548.949 133.326C549.947 133.326 550.756 133.647 551.376 134.29C552 134.932 552.338 135.784 552.388 136.846L552.395 137.236C552.395 137.965 552.253 138.617 551.971 139.191C551.693 139.765 551.292 140.209 550.768 140.524C550.248 140.838 549.646 140.996 548.963 140.996C547.919 140.996 547.083 140.649 546.454 139.957C545.83 139.259 545.518 138.332 545.518 137.174V137.092ZM547.179 137.236C547.179 137.997 547.336 138.594 547.65 139.027C547.965 139.455 548.402 139.669 548.963 139.669C549.523 139.669 549.959 139.451 550.269 139.013C550.583 138.576 550.74 137.935 550.74 137.092C550.74 136.345 550.578 135.752 550.255 135.315C549.936 134.877 549.501 134.659 548.949 134.659C548.407 134.659 547.976 134.875 547.657 135.308C547.338 135.736 547.179 136.379 547.179 137.236ZM551.273 132.252V132.328H549.94L548.915 131.261L547.896 132.328H546.577V132.239L548.43 130.352H549.407L551.273 132.252Z" fill="#903938"/>
<path d="M555.341 133.462L555.389 134.317C555.936 133.656 556.653 133.326 557.542 133.326C559.082 133.326 559.866 134.208 559.894 135.971V140.859H558.232V136.067C558.232 135.597 558.13 135.251 557.925 135.028C557.724 134.8 557.394 134.686 556.934 134.686C556.264 134.686 555.765 134.989 555.437 135.595V140.859H553.775V133.462H555.341Z" fill="#903938"/>
<path d="M561.302 137.106C561.302 135.958 561.571 135.042 562.108 134.358C562.651 133.67 563.368 133.326 564.262 133.326C565.105 133.326 565.768 133.62 566.251 134.208L566.326 133.462H567.823V140.633C567.823 141.604 567.52 142.37 566.914 142.93C566.312 143.491 565.499 143.771 564.474 143.771C563.931 143.771 563.4 143.657 562.881 143.429C562.366 143.206 561.974 142.912 561.705 142.547L562.491 141.549C563.002 142.155 563.631 142.458 564.378 142.458C564.929 142.458 565.365 142.308 565.684 142.007C566.003 141.711 566.162 141.274 566.162 140.695V140.196C565.684 140.729 565.046 140.996 564.248 140.996C563.382 140.996 562.674 140.652 562.122 139.963C561.575 139.275 561.302 138.323 561.302 137.106ZM562.956 137.25C562.956 137.992 563.106 138.578 563.407 139.006C563.713 139.43 564.134 139.642 564.672 139.642C565.342 139.642 565.839 139.355 566.162 138.781V135.527C565.848 134.966 565.355 134.686 564.686 134.686C564.139 134.686 563.713 134.903 563.407 135.335C563.106 135.768 562.956 136.406 562.956 137.25Z" fill="#903938"/>
<path d="M575.104 131.665V133.462H576.409V134.693H575.104V138.822C575.104 139.104 575.158 139.309 575.268 139.437C575.382 139.56 575.582 139.622 575.869 139.622C576.061 139.622 576.254 139.599 576.45 139.553V140.838C576.072 140.943 575.707 140.996 575.356 140.996C574.08 140.996 573.442 140.292 573.442 138.883V134.693H572.226V133.462H573.442V131.665H575.104Z" fill="#903938"/>
<path d="M579.451 140.859H577.79V133.462H579.451V140.859ZM577.688 131.542C577.688 131.286 577.767 131.074 577.927 130.906C578.091 130.737 578.323 130.653 578.624 130.653C578.925 130.653 579.157 130.737 579.321 130.906C579.485 131.074 579.567 131.286 579.567 131.542C579.567 131.792 579.485 132.002 579.321 132.17C579.157 132.334 578.925 132.417 578.624 132.417C578.323 132.417 578.091 132.334 577.927 132.17C577.767 132.002 577.688 131.792 577.688 131.542Z" fill="#903938"/>
<path d="M582.808 133.462L582.855 134.317C583.402 133.656 584.12 133.326 585.009 133.326C586.549 133.326 587.333 134.208 587.36 135.971V140.859H585.699V136.067C585.699 135.597 585.597 135.251 585.392 135.028C585.191 134.8 584.861 134.686 584.4 134.686C583.73 134.686 583.231 134.989 582.903 135.595V140.859H581.242V133.462H582.808Z" fill="#903938"/>
<path d="M594.183 134.269C594.725 133.64 595.411 133.326 596.24 133.326C597.817 133.326 598.617 134.226 598.64 136.026V140.859H596.979V136.087C596.979 135.577 596.867 135.217 596.644 135.007C596.425 134.793 596.101 134.686 595.673 134.686C595.007 134.686 594.511 134.982 594.183 135.575V140.859H592.521V130.359H594.183V134.269Z" fill="#903938"/>
<path d="M600.014 137.092C600.014 136.368 600.157 135.716 600.444 135.137C600.731 134.554 601.135 134.107 601.654 133.797C602.174 133.483 602.771 133.326 603.445 133.326C604.443 133.326 605.252 133.647 605.872 134.29C606.496 134.932 606.834 135.784 606.884 136.846L606.891 137.236C606.891 137.965 606.749 138.617 606.467 139.191C606.189 139.765 605.788 140.209 605.264 140.524C604.744 140.838 604.143 140.996 603.459 140.996C602.415 140.996 601.579 140.649 600.95 139.957C600.326 139.259 600.014 138.332 600.014 137.174V137.092ZM601.675 137.236C601.675 137.997 601.832 138.594 602.146 139.027C602.461 139.455 602.898 139.669 603.459 139.669C604.02 139.669 604.455 139.451 604.765 139.013C605.079 138.576 605.236 137.935 605.236 137.092C605.236 136.345 605.075 135.752 604.751 135.315C604.432 134.877 603.997 134.659 603.445 134.659C602.903 134.659 602.472 134.875 602.153 135.308C601.834 135.736 601.675 136.379 601.675 137.236ZM605.947 132.437H604.491L603.404 131.466L602.317 132.437H600.868L602.857 130.728H603.958L605.947 132.437ZM601.381 131.357H600.308L598.838 129.532H600.349L601.381 131.357Z" fill="#903938"/>
<path d="M615.928 138.849C615.928 138.553 615.805 138.327 615.559 138.172C615.317 138.017 614.914 137.881 614.349 137.762C613.784 137.644 613.312 137.493 612.934 137.311C612.104 136.91 611.689 136.329 611.689 135.568C611.689 134.93 611.958 134.397 612.496 133.968C613.034 133.54 613.717 133.326 614.547 133.326C615.431 133.326 616.144 133.544 616.687 133.982C617.233 134.419 617.507 134.987 617.507 135.684H615.846C615.846 135.365 615.727 135.101 615.49 134.891C615.253 134.677 614.939 134.57 614.547 134.57C614.182 134.57 613.884 134.654 613.651 134.823C613.424 134.991 613.31 135.217 613.31 135.5C613.31 135.755 613.417 135.953 613.631 136.094C613.845 136.236 614.278 136.379 614.93 136.525C615.581 136.666 616.092 136.837 616.461 137.038C616.835 137.234 617.11 137.471 617.288 137.749C617.47 138.027 617.562 138.364 617.562 138.76C617.562 139.426 617.286 139.966 616.734 140.38C616.183 140.791 615.461 140.996 614.567 140.996C613.961 140.996 613.421 140.886 612.947 140.667C612.473 140.449 612.104 140.148 611.84 139.765C611.576 139.382 611.443 138.97 611.443 138.528H613.057C613.079 138.92 613.228 139.223 613.501 139.437C613.774 139.647 614.137 139.751 614.588 139.751C615.025 139.751 615.358 139.669 615.586 139.505C615.814 139.337 615.928 139.118 615.928 138.849Z" fill="#903938"/>
<path d="M618.703 137.092C618.703 136.359 618.844 135.705 619.127 135.13C619.414 134.552 619.817 134.107 620.337 133.797C620.856 133.483 621.453 133.326 622.128 133.326C623.153 133.326 623.98 133.665 624.609 134.344C624.851 134.258 625.026 134.094 625.136 133.852C625.245 133.611 625.3 133.23 625.3 132.71H626.441C626.441 133.321 626.341 133.832 626.141 134.242C625.94 134.647 625.605 134.934 625.136 135.103C625.423 135.673 625.571 136.318 625.58 137.038V137.236C625.58 137.965 625.439 138.617 625.156 139.191C624.878 139.765 624.475 140.209 623.946 140.524C623.422 140.838 622.821 140.996 622.142 140.996C621.107 140.996 620.275 140.652 619.646 139.963C619.018 139.275 618.703 138.346 618.703 137.174V137.092ZM620.357 137.236C620.357 137.997 620.515 138.594 620.829 139.027C621.144 139.455 621.581 139.669 622.142 139.669C622.702 139.669 623.137 139.451 623.447 139.013C623.762 138.576 623.919 137.935 623.919 137.092C623.919 136.331 623.757 135.736 623.434 135.308C623.115 134.875 622.679 134.659 622.128 134.659C621.586 134.659 621.155 134.875 620.836 135.308C620.517 135.736 620.357 136.379 620.357 137.236Z" fill="#903938"/>
<path d="M720.237 50.3061C728.253 42.3093 738.302 36.1192 749.904 32.6309C787.456 21.3401 827.05 42.6287 838.341 80.1803C849.632 117.732 828.343 157.326 790.791 168.617C762.394 177.155 732.828 167.062 715.218 145.394" stroke="#CE7A58" stroke-width="2"/>
<path d="M709.951 93.302H714.973C718.129 93.2538 720.61 92.4228 722.417 90.8088C724.223 89.1949 725.126 87.0149 725.126 84.2688C725.126 78.1021 722.055 75.0188 715.913 75.0188C713.022 75.0188 710.709 75.8499 708.975 77.512C707.265 79.15 706.41 81.33 706.41 84.052H699.725C699.725 79.8847 701.243 76.428 704.278 73.6819C707.337 70.9117 711.215 69.5266 715.913 69.5266C720.875 69.5266 724.765 70.8394 727.583 73.4651C730.402 76.0907 731.811 79.7402 731.811 84.4133C731.811 86.7017 731.064 88.9179 729.571 91.0618C728.101 93.2056 726.09 94.8075 723.537 95.8674C726.427 96.7828 728.655 98.3004 730.221 100.42C731.811 102.54 732.606 105.129 732.606 108.189C732.606 112.91 731.064 116.656 727.981 119.426C724.898 122.196 720.887 123.581 715.949 123.581C711.011 123.581 706.988 122.244 703.88 119.571C700.797 116.897 699.255 113.368 699.255 108.984H705.976C705.976 111.754 706.879 113.97 708.686 115.632C710.493 117.294 712.914 118.125 715.949 118.125C719.177 118.125 721.646 117.282 723.356 115.596C725.066 113.91 725.921 111.489 725.921 108.333C725.921 105.274 724.982 102.925 723.103 101.287C721.224 99.6493 718.514 98.8062 714.973 98.7581H709.951V93.302Z" stroke="#CE7A58"/>
<path d="M773.601 81.9319C772.722 80.8948 772.045 79.761 771.571 78.5305C771.096 77.3 770.859 76.0344 770.859 74.7336C770.859 73.0989 771.21 71.5608 771.914 70.1194C772.634 68.6604 773.601 67.3948 774.814 66.3225C776.044 65.2327 777.477 64.3801 779.112 63.7649C780.747 63.1321 782.496 62.8157 784.359 62.8157C786.222 62.8157 787.971 63.1321 789.606 63.7649C791.241 64.3801 792.665 65.2327 793.877 66.3225C795.108 67.3948 796.075 68.6604 796.778 70.1194C797.499 71.5608 797.859 73.0989 797.859 74.7336C797.859 76.3684 797.499 77.9153 796.778 79.3743C796.075 80.8157 795.108 82.0813 793.877 83.1711C792.665 84.2434 791.241 85.0872 789.606 85.7024C787.971 86.3352 786.222 86.6516 784.359 86.6516C783.128 86.6516 781.924 86.5022 780.747 86.2034C779.569 85.9221 778.453 85.5002 777.398 84.9377C776.853 85.2366 776.264 85.4563 775.631 85.5969C775.016 85.7375 774.366 85.8079 773.68 85.8079C773.469 85.8079 773.25 85.7991 773.021 85.7815C772.81 85.7815 772.599 85.7639 772.388 85.7288C772.177 85.6936 771.993 85.6057 771.834 85.4651C771.676 85.3245 771.58 85.1487 771.544 84.9377C771.492 84.7268 771.5 84.5247 771.571 84.3313C771.659 84.1379 771.799 83.9797 771.993 83.8567C772.344 83.6282 772.652 83.3557 772.916 83.0393C773.179 82.7053 773.408 82.3362 773.601 81.9319ZM784.359 64.1604C782.689 64.1604 781.116 64.4417 779.639 65.0042C778.163 65.5491 776.871 66.3049 775.763 67.2717C774.673 68.2209 773.803 69.3372 773.153 70.6204C772.52 71.9036 772.204 73.2747 772.204 74.7336C772.204 75.9465 772.432 77.1155 772.889 78.2405C773.346 79.3655 774.014 80.4026 774.893 81.3518C774.981 81.4397 775.034 81.5452 775.051 81.6682C775.069 81.7913 775.06 81.9143 775.025 82.0374C774.849 82.5295 774.621 82.9778 774.339 83.3821C774.076 83.7864 773.768 84.1467 773.417 84.4631C774.084 84.4807 774.726 84.4192 775.341 84.2786C775.957 84.1379 776.528 83.9094 777.055 83.593C777.108 83.5579 777.161 83.5315 777.213 83.5139C777.266 83.4963 777.328 83.4875 777.398 83.4875C777.451 83.4875 777.503 83.4963 777.556 83.5139C777.626 83.5315 777.688 83.5579 777.741 83.593C778.725 84.1555 779.78 84.5774 780.905 84.8586C782.03 85.1575 783.181 85.3069 784.359 85.3069C786.029 85.3069 787.602 85.0344 789.079 84.4895C790.555 83.927 791.838 83.1711 792.928 82.2219C794.036 81.2551 794.906 80.1301 795.539 78.8469C796.189 77.5637 796.514 76.1926 796.514 74.7336C796.514 73.2747 796.189 71.9036 795.539 70.6204C794.906 69.3372 794.036 68.2209 792.928 67.2717C791.838 66.3049 790.555 65.5491 789.079 65.0042C787.602 64.4417 786.029 64.1604 784.359 64.1604ZM783.515 75.3928C782.812 75.3928 782.214 75.1379 781.722 74.6282C781.23 74.1008 780.984 73.468 780.984 72.7297C780.984 71.9915 781.23 71.3674 781.722 70.8577C782.214 70.3303 782.812 70.0667 783.515 70.0667H783.673V68.8274C783.673 68.6516 783.735 68.5022 783.858 68.3792C783.999 68.2385 784.166 68.1682 784.359 68.1682C784.552 68.1682 784.71 68.2385 784.833 68.3792C784.974 68.5022 785.044 68.6516 785.044 68.8274V70.0667H786.495C786.688 70.0667 786.846 70.137 786.969 70.2776C787.11 70.4006 787.18 70.5588 787.18 70.7522C787.18 70.928 787.11 71.0862 786.969 71.2268C786.846 71.3499 786.688 71.4114 786.495 71.4114H783.515C783.181 71.4114 782.9 71.5432 782.671 71.8069C782.443 72.0706 782.329 72.3782 782.329 72.7297C782.329 73.0989 782.443 73.4153 782.671 73.679C782.917 73.925 783.199 74.0481 783.515 74.0481H785.203C785.906 74.0481 786.503 74.3118 786.996 74.8391C787.488 75.3665 787.734 75.9905 787.734 76.7112C787.734 77.4495 787.488 78.0823 786.996 78.6096C786.521 79.1194 785.941 79.3831 785.255 79.4006H785.044V80.6399C785.044 80.8333 784.974 81.0002 784.833 81.1409C784.71 81.2639 784.552 81.3254 784.359 81.3254C784.166 81.3254 783.999 81.2639 783.858 81.1409C783.735 81.0002 783.673 80.8333 783.673 80.6399V79.4006H782.17C781.977 79.4006 781.81 79.3391 781.669 79.2161C781.546 79.0754 781.485 78.9084 781.485 78.7151C781.485 78.5217 781.546 78.3635 781.669 78.2405C781.81 78.0999 781.977 78.0295 782.17 78.0295H785.203C785.537 78.0295 785.818 77.9065 786.046 77.6604C786.275 77.3967 786.389 77.0803 786.389 76.7112C786.389 76.3596 786.275 76.052 786.046 75.7883C785.818 75.5247 785.537 75.3928 785.203 75.3928H783.515Z" fill="#CE7A58"/>
<path d="M764.098 109.253H761.355V116.859H760.236V109.253H757.5V108.327H764.098V109.253Z" fill="#CE7A58"/>
<path d="M766.277 111.286C766.758 110.697 767.383 110.402 768.152 110.402C769.492 110.402 770.168 111.157 770.18 112.669V116.859H769.096V112.663C769.092 112.206 768.986 111.868 768.779 111.65C768.576 111.431 768.258 111.322 767.824 111.322C767.473 111.322 767.164 111.415 766.898 111.603C766.633 111.79 766.426 112.036 766.277 112.341V116.859H765.193V107.859H766.277V111.286Z" fill="#CE7A58"/>
<path d="M775.717 116.859C775.654 116.734 775.604 116.511 775.564 116.191C775.061 116.714 774.459 116.976 773.76 116.976C773.135 116.976 772.621 116.8 772.219 116.448C771.82 116.093 771.621 115.644 771.621 115.101C771.621 114.441 771.871 113.929 772.371 113.566C772.875 113.198 773.582 113.015 774.492 113.015H775.547V112.517C775.547 112.138 775.434 111.837 775.207 111.615C774.98 111.388 774.646 111.275 774.205 111.275C773.818 111.275 773.494 111.372 773.232 111.568C772.971 111.763 772.84 111.999 772.84 112.277H771.75C771.75 111.96 771.861 111.656 772.084 111.363C772.311 111.066 772.615 110.831 772.998 110.659C773.385 110.488 773.809 110.402 774.27 110.402C775 110.402 775.572 110.585 775.986 110.952C776.4 111.316 776.615 111.818 776.631 112.458V115.376C776.631 115.958 776.705 116.421 776.854 116.765V116.859H775.717ZM773.918 116.032C774.258 116.032 774.58 115.945 774.885 115.769C775.189 115.593 775.41 115.365 775.547 115.083V113.782H774.697C773.369 113.782 772.705 114.171 772.705 114.948C772.705 115.288 772.818 115.554 773.045 115.745C773.271 115.937 773.562 116.032 773.918 116.032Z" fill="#CE7A58"/>
<path d="M779.355 110.519L779.391 111.316C779.875 110.706 780.508 110.402 781.289 110.402C782.629 110.402 783.305 111.157 783.316 112.669V116.859H782.232V112.663C782.229 112.206 782.123 111.868 781.916 111.65C781.713 111.431 781.395 111.322 780.961 111.322C780.609 111.322 780.301 111.415 780.035 111.603C779.77 111.79 779.562 112.036 779.414 112.341V116.859H778.33V110.519H779.355Z" fill="#CE7A58"/>
<path d="M786.035 111.286C786.516 110.697 787.141 110.402 787.91 110.402C789.25 110.402 789.926 111.157 789.938 112.669V116.859H788.854V112.663C788.85 112.206 788.744 111.868 788.537 111.65C788.334 111.431 788.016 111.322 787.582 111.322C787.23 111.322 786.922 111.415 786.656 111.603C786.391 111.79 786.184 112.036 786.035 112.341V116.859H784.951V107.859H786.035V111.286Z" fill="#CE7A58"/>
<path d="M796.008 108.984V110.519H797.191V111.357H796.008V115.288C796.008 115.542 796.061 115.734 796.166 115.863C796.271 115.988 796.451 116.05 796.705 116.05C796.83 116.05 797.002 116.027 797.221 115.98V116.859C796.936 116.937 796.658 116.976 796.389 116.976C795.904 116.976 795.539 116.829 795.293 116.536C795.047 116.243 794.924 115.827 794.924 115.288V111.357H793.77V110.519H794.924V108.984H796.008Z" fill="#CE7A58"/>
<path d="M798.059 113.63C798.059 113.009 798.18 112.45 798.422 111.954C798.668 111.458 799.008 111.075 799.441 110.806C799.879 110.536 800.377 110.402 800.936 110.402C801.799 110.402 802.496 110.7 803.027 111.298C803.562 111.896 803.83 112.691 803.83 113.683V113.759C803.83 114.376 803.711 114.931 803.473 115.423C803.238 115.911 802.9 116.292 802.459 116.566C802.021 116.839 801.518 116.976 800.947 116.976C800.088 116.976 799.391 116.677 798.855 116.079C798.324 115.482 798.059 114.691 798.059 113.706V113.63ZM799.148 113.759C799.148 114.462 799.311 115.027 799.635 115.452C799.963 115.878 800.4 116.091 800.947 116.091C801.498 116.091 801.936 115.876 802.26 115.447C802.584 115.013 802.746 114.407 802.746 113.63C802.746 112.935 802.58 112.372 802.248 111.943C801.92 111.509 801.482 111.292 800.936 111.292C800.4 111.292 799.969 111.505 799.641 111.931C799.312 112.357 799.148 112.966 799.148 113.759Z" fill="#CE7A58"/>
<path d="M809.104 116.859C809.041 116.734 808.99 116.511 808.951 116.191C808.447 116.714 807.846 116.976 807.146 116.976C806.521 116.976 806.008 116.8 805.605 116.448C805.207 116.093 805.008 115.644 805.008 115.101C805.008 114.441 805.258 113.929 805.758 113.566C806.262 113.198 806.969 113.015 807.879 113.015H808.934V112.517C808.934 112.138 808.82 111.837 808.594 111.615C808.367 111.388 808.033 111.275 807.592 111.275C807.205 111.275 806.881 111.372 806.619 111.568C806.357 111.763 806.227 111.999 806.227 112.277H805.137C805.137 111.96 805.248 111.656 805.471 111.363C805.697 111.066 806.002 110.831 806.385 110.659C806.771 110.488 807.195 110.402 807.656 110.402C808.387 110.402 808.959 110.585 809.373 110.952C809.787 111.316 810.002 111.818 810.018 112.458V115.376C810.018 115.958 810.092 116.421 810.24 116.765V116.859H809.104ZM807.305 116.032C807.645 116.032 807.967 115.945 808.271 115.769C808.576 115.593 808.797 115.365 808.934 115.083V113.782H808.084C806.756 113.782 806.092 114.171 806.092 114.948C806.092 115.288 806.205 115.554 806.432 115.745C806.658 115.937 806.949 116.032 807.305 116.032ZM808.307 107.859H809.619L808.049 109.581H807.176L808.307 107.859Z" fill="#CE7A58"/>
<path d="M812.742 110.519L812.777 111.316C813.262 110.706 813.895 110.402 814.676 110.402C816.016 110.402 816.691 111.157 816.703 112.669V116.859H815.619V112.663C815.615 112.206 815.51 111.868 815.303 111.65C815.1 111.431 814.781 111.322 814.348 111.322C813.996 111.322 813.688 111.415 813.422 111.603C813.156 111.79 812.949 112.036 812.801 112.341V116.859H811.717V110.519H812.742Z" fill="#CE7A58"/>
<path d="M760.179 137.161V140.859H758.45V130.906H762.257C763.369 130.906 764.251 131.195 764.903 131.774C765.559 132.353 765.887 133.118 765.887 134.071C765.887 135.046 765.566 135.805 764.923 136.347C764.285 136.889 763.39 137.161 762.237 137.161H760.179ZM760.179 135.773H762.257C762.873 135.773 763.342 135.629 763.666 135.342C763.989 135.051 764.151 134.631 764.151 134.084C764.151 133.547 763.987 133.118 763.659 132.799C763.331 132.476 762.879 132.309 762.305 132.3H760.179V135.773Z" fill="#903938"/>
<path d="M768.881 134.269C769.424 133.64 770.11 133.326 770.939 133.326C772.516 133.326 773.316 134.226 773.338 136.026V140.859H771.677V136.087C771.677 135.577 771.566 135.217 771.342 135.007C771.124 134.793 770.8 134.686 770.372 134.686C769.706 134.686 769.209 134.982 768.881 135.575V140.859H767.22V130.359H768.881V134.269Z" fill="#903938"/>
<path d="M776.811 140.859H775.15V133.462H776.811V140.859ZM776.497 130.407H778.39L776.497 132.478H775.164L776.497 130.407Z" fill="#903938"/>
<path d="M779.169 141.713H777.864L781.781 130.906H783.086L779.169 141.713Z" fill="#903938"/>
<path d="M786.005 140.859H784.344V130.359H786.005V140.859Z" fill="#903938"/>
<path d="M791.078 140.996C790.025 140.996 789.17 140.665 788.514 140.004C787.862 139.339 787.537 138.455 787.537 137.352V137.147C787.537 136.409 787.678 135.75 787.96 135.171C788.248 134.588 788.649 134.135 789.164 133.811C789.679 133.487 790.253 133.326 790.886 133.326C791.893 133.326 792.67 133.647 793.217 134.29C793.769 134.932 794.044 135.841 794.044 137.017V137.687H789.211C789.262 138.298 789.464 138.781 789.82 139.136C790.18 139.492 790.631 139.669 791.173 139.669C791.934 139.669 792.554 139.362 793.033 138.747L793.928 139.601C793.632 140.043 793.236 140.387 792.739 140.633C792.247 140.875 791.693 140.996 791.078 140.996ZM790.879 134.659C790.424 134.659 790.055 134.818 789.772 135.137C789.494 135.456 789.316 135.901 789.239 136.47H792.404V136.347C792.367 135.791 792.219 135.372 791.959 135.089C791.7 134.802 791.34 134.659 790.879 134.659ZM793.122 132.252V132.328H791.789L790.763 131.261L789.745 132.328H788.425V132.239L790.278 130.352H791.255L793.122 132.252ZM789.888 142.506C789.888 142.265 789.968 142.062 790.127 141.898C790.292 141.738 790.524 141.659 790.825 141.659C791.125 141.659 791.358 141.738 791.522 141.898C791.686 142.062 791.768 142.265 791.768 142.506C791.768 142.748 791.686 142.948 791.522 143.108C791.358 143.267 791.125 143.347 790.825 143.347C790.524 143.347 790.292 143.267 790.127 143.108C789.968 142.948 789.888 142.748 789.888 142.506Z" fill="#903938"/>
<path d="M805.303 137.236C805.303 138.38 805.043 139.293 804.524 139.977C804.004 140.656 803.307 140.996 802.432 140.996C801.621 140.996 800.972 140.729 800.484 140.196V143.703H798.823V133.462H800.354L800.422 134.214C800.91 133.622 801.573 133.326 802.412 133.326C803.314 133.326 804.02 133.663 804.531 134.337C805.046 135.007 805.303 135.939 805.303 137.133V137.236ZM803.649 137.092C803.649 136.354 803.501 135.768 803.205 135.335C802.913 134.903 802.494 134.686 801.947 134.686C801.268 134.686 800.78 134.966 800.484 135.527V138.808C800.785 139.382 801.277 139.669 801.96 139.669C802.489 139.669 802.902 139.458 803.198 139.034C803.499 138.605 803.649 137.958 803.649 137.092Z" fill="#903938"/>
<path d="M808.352 134.269C808.894 133.64 809.58 133.326 810.41 133.326C811.986 133.326 812.786 134.226 812.809 136.026V140.859H811.148V136.087C811.148 135.577 811.036 135.217 810.813 135.007C810.594 134.793 810.271 134.686 809.842 134.686C809.177 134.686 808.68 134.982 808.352 135.575V140.859H806.691V130.359H808.352V134.269Z" fill="#903938"/>
<path d="M816.282 140.859H814.621V133.462H816.282V140.859ZM815.967 130.407H817.861L815.967 132.478H814.634L815.967 130.407Z" fill="#903938"/>
<path d="M937.237 50.3058C945.253 42.309 955.302 36.119 966.904 32.6306C1004.46 21.3399 1044.05 42.6285 1055.34 80.18C1066.63 117.732 1045.34 157.326 1007.79 168.617C979.394 177.155 949.828 167.062 932.218 145.394" stroke="#CE7A58" stroke-width="2"/>
<path d="M935.451 105.19H942.75V110.646H935.451V122.859H928.73V110.646H904.774V106.707L928.333 70.2493H935.451V105.19ZM912.362 105.19H928.73V79.3909L927.935 80.8362L912.362 105.19Z" stroke="#CE7A58"/>
<path d="M996.685 60.3899C996.931 60.3899 997.133 60.4778 997.292 60.6536C997.467 60.8118 997.555 61.0139 997.555 61.26V62.4465H1000.96C1001.19 62.4465 1001.38 62.5344 1001.54 62.7102C1001.71 62.8684 1001.8 63.0706 1001.8 63.3167V85.9133C1001.8 86.1594 1001.71 86.3616 1001.54 86.5198C1001.38 86.678 1001.19 86.7571 1000.96 86.7571H981.761C981.533 86.7571 981.331 86.678 981.155 86.5198C980.997 86.3616 980.917 86.1594 980.917 85.9133V63.3167C980.917 63.0706 980.997 62.8684 981.155 62.7102C981.331 62.5344 981.533 62.4465 981.761 62.4465H985.558V61.26C985.558 61.0139 985.637 60.8118 985.795 60.6536C985.971 60.4778 986.182 60.3899 986.428 60.3899H996.685ZM987.272 64.8196H995.841V62.1038H987.272V64.8196ZM1000.09 64.1604H997.555V65.6633C997.555 65.9094 997.467 66.1204 997.292 66.2961C997.133 66.4543 996.931 66.5334 996.685 66.5334H986.428C986.182 66.5334 985.971 66.4543 985.795 66.2961C985.637 66.1204 985.558 65.9094 985.558 65.6633V64.1604H982.631V85.0432H1000.09V64.1604ZM997.74 75.261C997.986 75.261 998.188 75.3489 998.346 75.5247C998.522 75.6829 998.61 75.8762 998.61 76.1047C998.61 76.3508 998.522 76.5618 998.346 76.7375C998.188 76.8958 997.986 76.9749 997.74 76.9749H985.374C985.127 76.9749 984.917 76.8958 984.741 76.7375C984.583 76.5618 984.503 76.3508 984.503 76.1047C984.503 75.8762 984.583 75.6829 984.741 75.5247C984.917 75.3489 985.127 75.261 985.374 75.261H997.74ZM991.57 79.4006C991.798 79.4006 991.992 79.4885 992.15 79.6643C992.326 79.8225 992.414 80.0247 992.414 80.2708C992.414 80.4993 992.326 80.7014 992.15 80.8772C991.992 81.0354 991.79 81.1145 991.543 81.1145H985.374C985.127 81.1145 984.917 81.0354 984.741 80.8772C984.583 80.7014 984.503 80.4993 984.503 80.2708C984.503 80.0247 984.583 79.8225 984.741 79.6643C984.917 79.4885 985.127 79.4006 985.374 79.4006H991.57ZM984.503 71.9387C984.503 71.7102 984.583 71.5168 984.741 71.3586C984.917 71.1829 985.127 71.095 985.374 71.095H997.74C997.986 71.095 998.188 71.1829 998.346 71.3586C998.522 71.5168 998.61 71.7102 998.61 71.9387C998.61 72.1848 998.522 72.3958 998.346 72.5715C998.188 72.7297 997.986 72.8088 997.74 72.8088H985.374C985.127 72.8088 984.917 72.7297 984.741 72.5715C984.583 72.3958 984.503 72.1848 984.503 71.9387Z" fill="#CE7A58"/>
<path d="M963.249 109.253H960.507V116.859H959.387V109.253H956.651V108.327H963.249V109.253Z" fill="#CE7A58"/>
<path d="M965.428 111.286C965.909 110.697 966.534 110.402 967.303 110.402C968.643 110.402 969.319 111.157 969.331 112.669V116.859H968.247V112.663C968.243 112.206 968.137 111.868 967.93 111.65C967.727 111.431 967.409 111.322 966.975 111.322C966.624 111.322 966.315 111.415 966.05 111.603C965.784 111.79 965.577 112.036 965.428 112.341V116.859H964.344V107.859H965.428V111.286Z" fill="#CE7A58"/>
<path d="M973.585 116.976C972.725 116.976 972.026 116.695 971.487 116.132C970.948 115.566 970.678 114.81 970.678 113.865V113.665C970.678 113.036 970.798 112.476 971.036 111.984C971.278 111.488 971.614 111.101 972.044 110.823C972.477 110.542 972.946 110.402 973.45 110.402C974.274 110.402 974.915 110.673 975.372 111.216C975.829 111.759 976.057 112.536 976.057 113.548V113.999H971.762C971.778 114.624 971.96 115.13 972.307 115.517C972.659 115.9 973.104 116.091 973.643 116.091C974.026 116.091 974.35 116.013 974.616 115.857C974.882 115.7 975.114 115.493 975.313 115.236L975.975 115.751C975.444 116.568 974.647 116.976 973.585 116.976ZM973.45 111.292C973.012 111.292 972.645 111.452 972.348 111.773C972.052 112.089 971.868 112.534 971.798 113.109H974.973V113.027C974.942 112.476 974.794 112.05 974.528 111.749C974.262 111.445 973.903 111.292 973.45 111.292Z" fill="#CE7A58"/>
<path d="M977.03 113.63C977.03 113.009 977.151 112.45 977.393 111.954C977.639 111.458 977.979 111.075 978.413 110.806C978.85 110.536 979.348 110.402 979.907 110.402C980.77 110.402 981.468 110.7 981.999 111.298C982.534 111.896 982.802 112.691 982.802 113.683V113.759C982.802 114.376 982.682 114.931 982.444 115.423C982.21 115.911 981.872 116.292 981.43 116.566C980.993 116.839 980.489 116.976 979.919 116.976C979.059 116.976 978.362 116.677 977.827 116.079C977.296 115.482 977.03 114.691 977.03 113.706V113.63ZM978.12 113.759C978.12 114.462 978.282 115.027 978.606 115.452C978.934 115.878 979.372 116.091 979.919 116.091C980.469 116.091 980.907 115.876 981.231 115.447C981.555 115.013 981.718 114.407 981.718 113.63C981.718 112.935 981.552 112.372 981.219 111.943C980.891 111.509 980.454 111.292 979.907 111.292C979.372 111.292 978.94 111.505 978.612 111.931C978.284 112.357 978.12 112.966 978.12 113.759Z" fill="#CE7A58"/>
<path d="M986.874 113.636C986.874 112.663 987.104 111.882 987.565 111.292C988.026 110.698 988.63 110.402 989.376 110.402C990.118 110.402 990.706 110.656 991.139 111.163V107.859H992.223V116.859H991.227L991.175 116.179C990.741 116.71 990.137 116.976 989.364 116.976C988.63 116.976 988.03 116.675 987.565 116.073C987.104 115.472 986.874 114.687 986.874 113.718V113.636ZM987.958 113.759C987.958 114.478 988.106 115.04 988.403 115.447C988.7 115.853 989.11 116.056 989.634 116.056C990.321 116.056 990.823 115.747 991.139 115.13V112.218C990.815 111.62 990.317 111.322 989.645 111.322C989.114 111.322 988.7 111.527 988.403 111.937C988.106 112.347 987.958 112.954 987.958 113.759Z" fill="#CE7A58"/>
<path d="M993.624 113.63C993.624 113.009 993.745 112.45 993.987 111.954C994.233 111.458 994.573 111.075 995.007 110.806C995.444 110.536 995.942 110.402 996.501 110.402C997.364 110.402 998.061 110.7 998.593 111.298C999.128 111.896 999.395 112.691 999.395 113.683V113.759C999.395 114.376 999.276 114.931 999.038 115.423C998.803 115.911 998.466 116.292 998.024 116.566C997.587 116.839 997.083 116.976 996.512 116.976C995.653 116.976 994.956 116.677 994.421 116.079C993.889 115.482 993.624 114.691 993.624 113.706V113.63ZM994.714 113.759C994.714 114.462 994.876 115.027 995.2 115.452C995.528 115.878 995.966 116.091 996.512 116.091C997.063 116.091 997.501 115.876 997.825 115.447C998.149 115.013 998.311 114.407 998.311 113.63C998.311 112.935 998.145 112.372 997.813 111.943C997.485 111.509 997.048 111.292 996.501 111.292C995.966 111.292 995.534 111.505 995.206 111.931C994.878 112.357 994.714 112.966 994.714 113.759ZM998.54 108.046C998.54 108.468 998.419 108.81 998.177 109.072C997.938 109.333 997.639 109.464 997.28 109.464C997.12 109.464 996.981 109.445 996.864 109.406C996.747 109.366 996.593 109.286 996.401 109.165C996.214 109.044 996.077 108.972 995.991 108.948C995.909 108.921 995.813 108.907 995.704 108.907C995.544 108.907 995.407 108.97 995.294 109.095C995.18 109.216 995.124 109.372 995.124 109.564L994.397 109.523C994.397 109.105 994.514 108.759 994.749 108.486C994.987 108.212 995.288 108.075 995.651 108.075C995.788 108.075 995.911 108.095 996.02 108.134C996.13 108.173 996.278 108.249 996.466 108.363C996.653 108.476 996.796 108.55 996.893 108.585C996.995 108.62 997.106 108.638 997.227 108.638C997.395 108.638 997.534 108.572 997.643 108.439C997.757 108.306 997.813 108.152 997.813 107.976L998.54 108.046Z" fill="#CE7A58"/>
<path d="M1004.82 111.286C1005.3 110.697 1005.92 110.402 1006.69 110.402C1008.03 110.402 1008.71 111.157 1008.72 112.669V116.859H1007.63V112.663C1007.63 112.206 1007.52 111.868 1007.32 111.65C1007.11 111.431 1006.8 111.322 1006.36 111.322C1006.01 111.322 1005.7 111.415 1005.44 111.603C1005.17 111.79 1004.96 112.036 1004.82 112.341V116.859H1003.73V107.859H1004.82V111.286Z" fill="#CE7A58"/>
<path d="M1010.05 113.63C1010.05 113.009 1010.17 112.45 1010.42 111.954C1010.66 111.458 1011 111.075 1011.44 110.806C1011.87 110.536 1012.37 110.402 1012.93 110.402C1013.79 110.402 1014.49 110.7 1015.02 111.298C1015.56 111.896 1015.82 112.691 1015.82 113.683V113.759C1015.82 114.376 1015.71 114.931 1015.47 115.423C1015.23 115.911 1014.9 116.292 1014.45 116.566C1014.02 116.839 1013.51 116.976 1012.94 116.976C1012.08 116.976 1011.39 116.677 1010.85 116.079C1010.32 115.482 1010.05 114.691 1010.05 113.706V113.63ZM1011.14 113.759C1011.14 114.462 1011.31 115.027 1011.63 115.452C1011.96 115.878 1012.4 116.091 1012.94 116.091C1013.49 116.091 1013.93 115.876 1014.25 115.447C1014.58 115.013 1014.74 114.407 1014.74 113.63C1014.74 112.935 1014.57 112.372 1014.24 111.943C1013.91 111.509 1013.48 111.292 1012.93 111.292C1012.4 111.292 1011.96 111.505 1011.64 111.931C1011.31 112.357 1011.14 112.966 1011.14 113.759ZM1015.03 109.605H1013.87L1012.88 108.679L1011.88 109.605H1010.73L1012.43 108.07H1013.32L1015.03 109.605ZM1011.16 108.568H1010.34L1009.17 107.056H1010.33L1011.16 108.568Z" fill="#CE7A58"/>
<path d="M1023.85 115.177C1023.85 114.884 1023.74 114.657 1023.52 114.497C1023.3 114.333 1022.91 114.193 1022.36 114.075C1021.82 113.958 1021.38 113.818 1021.06 113.654C1020.74 113.49 1020.5 113.294 1020.34 113.068C1020.19 112.841 1020.11 112.572 1020.11 112.259C1020.11 111.74 1020.33 111.3 1020.77 110.941C1021.21 110.581 1021.77 110.402 1022.46 110.402C1023.18 110.402 1023.76 110.587 1024.2 110.958C1024.65 111.329 1024.88 111.804 1024.88 112.382H1023.79C1023.79 112.085 1023.66 111.829 1023.41 111.615C1023.16 111.4 1022.84 111.292 1022.46 111.292C1022.06 111.292 1021.75 111.378 1021.53 111.55C1021.31 111.722 1021.2 111.947 1021.2 112.224C1021.2 112.486 1021.3 112.683 1021.51 112.816C1021.72 112.948 1022.09 113.075 1022.63 113.197C1023.17 113.318 1023.61 113.462 1023.95 113.63C1024.28 113.798 1024.53 114.001 1024.69 114.24C1024.85 114.474 1024.94 114.761 1024.94 115.101C1024.94 115.667 1024.71 116.122 1024.26 116.466C1023.8 116.806 1023.22 116.976 1022.49 116.976C1021.99 116.976 1021.54 116.886 1021.15 116.706C1020.75 116.527 1020.45 116.277 1020.23 115.956C1020.01 115.632 1019.9 115.282 1019.9 114.907H1020.98C1021 115.271 1021.15 115.56 1021.41 115.775C1021.69 115.986 1022.05 116.091 1022.49 116.091C1022.9 116.091 1023.23 116.009 1023.48 115.845C1023.73 115.677 1023.85 115.454 1023.85 115.177Z" fill="#CE7A58"/>
<path d="M1026.06 113.63C1026.06 113.009 1026.18 112.452 1026.42 111.96C1026.66 111.464 1027 111.081 1027.44 110.812C1027.88 110.538 1028.38 110.402 1028.94 110.402C1029.75 110.402 1030.42 110.671 1030.95 111.21C1031.23 111.179 1031.43 111.066 1031.55 110.87C1031.68 110.675 1031.74 110.327 1031.74 109.827H1032.62C1032.62 110.964 1032.21 111.632 1031.41 111.831C1031.69 112.37 1031.83 112.97 1031.83 113.63V113.759C1031.83 114.376 1031.71 114.933 1031.47 115.429C1031.23 115.925 1030.89 116.308 1030.45 116.577C1030.01 116.843 1029.51 116.976 1028.95 116.976C1028.08 116.976 1027.38 116.677 1026.85 116.079C1026.32 115.478 1026.06 114.687 1026.06 113.706V113.63ZM1027.15 113.759C1027.15 114.462 1027.31 115.027 1027.63 115.452C1027.96 115.878 1028.4 116.091 1028.95 116.091C1029.49 116.091 1029.93 115.878 1030.25 115.452C1030.58 115.023 1030.74 114.447 1030.74 113.724V113.63C1030.74 112.923 1030.58 112.357 1030.24 111.931C1029.92 111.505 1029.48 111.292 1028.94 111.292C1028.4 111.292 1027.97 111.505 1027.64 111.931C1027.31 112.357 1027.15 112.966 1027.15 113.759Z" fill="#CE7A58"/>
<path d="M956.417 133.462L956.464 134.317C957.011 133.656 957.729 133.326 958.618 133.326C960.158 133.326 960.942 134.208 960.969 135.971V140.859H959.308V136.067C959.308 135.597 959.206 135.251 959 135.028C958.8 134.8 958.47 134.686 958.009 134.686C957.339 134.686 956.84 134.989 956.512 135.595V140.859H954.851V133.462H956.417Z" fill="#903938"/>
<path d="M964.305 134.269C964.847 133.64 965.533 133.326 966.363 133.326C967.94 133.326 968.739 134.226 968.762 136.026V140.859H967.101V136.087C967.101 135.577 966.989 135.217 966.766 135.007C966.547 134.793 966.224 134.686 965.795 134.686C965.13 134.686 964.633 134.982 964.305 135.575V140.859H962.644V130.359H964.305V134.269Z" fill="#903938"/>
<path d="M974.867 140.859C974.794 140.718 974.73 140.487 974.675 140.168C974.147 140.72 973.5 140.996 972.734 140.996C971.991 140.996 971.385 140.784 970.916 140.36C970.446 139.936 970.211 139.412 970.211 138.788C970.211 137.999 970.503 137.395 971.086 136.976C971.674 136.552 972.513 136.34 973.602 136.34H974.621V135.855C974.621 135.472 974.514 135.167 974.299 134.939C974.085 134.707 973.759 134.59 973.322 134.59C972.944 134.59 972.634 134.686 972.392 134.877C972.151 135.064 972.03 135.304 972.03 135.595H970.369C970.369 135.19 970.503 134.811 970.772 134.46C971.041 134.105 971.405 133.827 971.866 133.626C972.331 133.426 972.848 133.326 973.417 133.326C974.283 133.326 974.974 133.544 975.489 133.982C976.004 134.415 976.268 135.026 976.282 135.814V139.15C976.282 139.815 976.375 140.346 976.562 140.743V140.859H974.867ZM973.042 139.663C973.37 139.663 973.677 139.583 973.964 139.423C974.256 139.264 974.475 139.05 974.621 138.781V137.386H973.725C973.11 137.386 972.647 137.493 972.337 137.708C972.028 137.922 971.873 138.225 971.873 138.617C971.873 138.936 971.977 139.191 972.187 139.382C972.401 139.569 972.686 139.663 973.042 139.663ZM975.831 132.252V132.328H974.498L973.472 131.261L972.454 132.328H971.134V132.239L972.987 130.352H973.964L975.831 132.252ZM971.975 142.458C971.975 142.217 972.055 142.014 972.214 141.85C972.378 141.691 972.611 141.611 972.912 141.611C973.212 141.611 973.445 141.691 973.609 141.85C973.773 142.014 973.855 142.217 973.855 142.458C973.855 142.7 973.773 142.901 973.609 143.06C973.445 143.22 973.212 143.299 972.912 143.299C972.611 143.299 972.378 143.22 972.214 143.06C972.055 142.901 971.975 142.7 971.975 142.458Z" fill="#903938"/>
<path d="M979.563 133.462L979.611 134.317C980.158 133.656 980.875 133.326 981.764 133.326C983.305 133.326 984.088 134.208 984.116 135.971V140.859H982.455V136.067C982.455 135.597 982.352 135.251 982.147 135.028C981.946 134.8 981.616 134.686 981.156 134.686C980.486 134.686 979.987 134.989 979.659 135.595V140.859H977.998V133.462H979.563Z" fill="#903938"/>
<path d="M991.704 137.687L990.965 138.446V140.859H989.304V130.359H990.965V136.416L991.485 135.766L993.529 133.462H995.525L992.777 136.545L995.819 140.859H993.898L991.704 137.687Z" fill="#903938"/>
<path d="M999.736 140.996C998.683 140.996 997.829 140.665 997.172 140.004C996.521 139.339 996.195 138.455 996.195 137.352V137.147C996.195 136.409 996.336 135.75 996.619 135.171C996.906 134.588 997.307 134.135 997.822 133.811C998.337 133.487 998.911 133.326 999.544 133.326C1000.55 133.326 1001.33 133.647 1001.88 134.29C1002.43 134.932 1002.7 135.841 1002.7 137.017V137.687H997.87C997.92 138.298 998.123 138.781 998.478 139.136C998.838 139.492 999.289 139.669 999.832 139.669C1000.59 139.669 1001.21 139.362 1001.69 138.747L1002.59 139.601C1002.29 140.043 1001.89 140.387 1001.4 140.633C1000.9 140.875 1000.35 140.996 999.736 140.996ZM999.538 134.659C999.082 134.659 998.713 134.818 998.43 135.137C998.152 135.456 997.974 135.901 997.897 136.47H1001.06V136.347C1001.03 135.791 1000.88 135.372 1000.62 135.089C1000.36 134.802 999.998 134.659 999.538 134.659ZM998.868 130.708H999.968L1001.96 132.417H1000.51L999.421 131.446L998.334 132.417H996.878L998.868 130.708ZM1002.48 129.511H1003.99L1002.52 131.336H1001.44L1002.48 129.511Z" fill="#903938"/>
<path d="M1006.08 131.665V133.462H1007.39V134.693H1006.08V138.822C1006.08 139.104 1006.13 139.309 1006.24 139.437C1006.36 139.56 1006.56 139.622 1006.85 139.622C1007.04 139.622 1007.23 139.599 1007.43 139.553V140.838C1007.05 140.943 1006.68 140.996 1006.33 140.996C1005.06 140.996 1004.42 140.292 1004.42 138.883V134.693H1003.2V133.462H1004.42V131.665H1006.08Z" fill="#903938"/>
<path d="M1011.84 137.099C1011.84 135.942 1012.1 135.023 1012.63 134.344C1013.16 133.665 1013.87 133.326 1014.77 133.326C1015.6 133.326 1016.25 133.615 1016.74 134.194L1016.83 133.462H1018.31V143.703H1016.65V140.23C1016.16 140.74 1015.54 140.996 1014.76 140.996C1013.88 140.996 1013.17 140.652 1012.64 139.963C1012.1 139.271 1011.84 138.316 1011.84 137.099ZM1013.5 137.243C1013.5 137.999 1013.64 138.594 1013.94 139.027C1014.24 139.455 1014.66 139.669 1015.19 139.669C1015.84 139.669 1016.33 139.389 1016.65 138.829V135.465C1016.33 134.928 1015.85 134.659 1015.2 134.659C1014.67 134.659 1014.25 134.871 1013.95 135.294C1013.65 135.718 1013.5 136.368 1013.5 137.243Z" fill="#903938"/>
<path d="M1024.58 140.134C1024.1 140.708 1023.4 140.996 1022.51 140.996C1021.7 140.996 1021.1 140.761 1020.68 140.292C1020.27 139.822 1020.07 139.143 1020.07 138.254V133.462H1021.73V138.234C1021.73 139.173 1022.12 139.642 1022.9 139.642C1023.7 139.642 1024.25 139.353 1024.53 138.774V133.462H1026.19V140.859H1024.63L1024.58 140.134Z" fill="#903938"/>
<path d="M1032.3 140.859C1032.23 140.718 1032.17 140.487 1032.11 140.168C1031.58 140.72 1030.94 140.996 1030.17 140.996C1029.43 140.996 1028.82 140.784 1028.35 140.36C1027.88 139.936 1027.65 139.412 1027.65 138.788C1027.65 137.999 1027.94 137.395 1028.52 136.976C1029.11 136.552 1029.95 136.34 1031.04 136.34H1032.06V135.855C1032.06 135.472 1031.95 135.167 1031.73 134.939C1031.52 134.707 1031.19 134.59 1030.76 134.59C1030.38 134.59 1030.07 134.686 1029.83 134.877C1029.59 135.064 1029.47 135.304 1029.47 135.595H1027.8C1027.8 135.19 1027.94 134.811 1028.21 134.46C1028.48 134.105 1028.84 133.827 1029.3 133.626C1029.77 133.426 1030.28 133.326 1030.85 133.326C1031.72 133.326 1032.41 133.544 1032.92 133.982C1033.44 134.415 1033.7 135.026 1033.72 135.814V139.15C1033.72 139.815 1033.81 140.346 1034 140.743V140.859H1032.3ZM1030.48 139.663C1030.81 139.663 1031.11 139.583 1031.4 139.423C1031.69 139.264 1031.91 139.05 1032.06 138.781V137.386H1031.16C1030.55 137.386 1030.08 137.493 1029.77 137.708C1029.46 137.922 1029.31 138.225 1029.31 138.617C1029.31 138.936 1029.41 139.191 1029.62 139.382C1029.84 139.569 1030.12 139.663 1030.48 139.663ZM1030.31 132.246L1030.27 131.248C1030.6 131.225 1030.84 131.181 1030.98 131.118C1031.13 131.054 1031.21 130.942 1031.21 130.783C1031.21 130.455 1030.87 130.291 1030.18 130.291L1030.23 129.45C1031 129.45 1031.58 129.568 1031.97 129.805C1032.36 130.042 1032.56 130.361 1032.56 130.762C1032.56 131.036 1032.47 131.261 1032.29 131.439C1032.11 131.617 1031.86 131.728 1031.53 131.774V132.246H1030.31Z" fill="#903938"/>
<path d="M319.341 127H312.62V82.4482L299.143 87.3984V81.3281L318.293 74.1377H319.341V127Z" stroke="#CB7300"/>
<path d="M349.093 123V118.448H347.78V117.415H349.093V113.047H351.902C352.768 113.047 353.534 113.239 354.199 113.621C354.864 114.004 355.377 114.549 355.737 115.255C356.102 115.962 356.286 116.773 356.291 117.689V118.324C356.291 119.263 356.108 120.086 355.744 120.792C355.384 121.499 354.867 122.041 354.192 122.419C353.522 122.797 352.741 122.991 351.847 123H349.093ZM352.128 118.448H350.405V121.927H351.779C352.791 121.927 353.577 121.615 354.137 120.99C354.703 120.366 354.987 119.487 354.992 118.352V117.716C354.992 116.586 354.725 115.709 354.192 115.084C353.663 114.455 352.912 114.136 351.936 114.127H350.405V117.415H352.128V118.448Z" fill="#CE7A58"/>
<path d="M362.648 123C362.575 122.854 362.516 122.595 362.47 122.221C361.883 122.832 361.181 123.137 360.365 123.137C359.636 123.137 359.037 122.932 358.567 122.522C358.102 122.107 357.87 121.583 357.87 120.949C357.87 120.179 358.162 119.582 358.745 119.158C359.333 118.73 360.158 118.516 361.219 118.516H362.45V117.935C362.45 117.493 362.318 117.142 362.053 116.882C361.789 116.618 361.399 116.486 360.885 116.486C360.433 116.486 360.055 116.6 359.75 116.827C359.444 117.055 359.292 117.331 359.292 117.655H358.02C358.02 117.285 358.15 116.93 358.41 116.588C358.674 116.242 359.03 115.968 359.476 115.768C359.927 115.567 360.422 115.467 360.96 115.467C361.812 115.467 362.48 115.681 362.963 116.11C363.446 116.533 363.696 117.119 363.715 117.866V121.271C363.715 121.95 363.801 122.49 363.974 122.891V123H362.648ZM360.55 122.036C360.946 122.036 361.322 121.934 361.677 121.729C362.033 121.524 362.29 121.257 362.45 120.929V119.411H361.459C359.909 119.411 359.135 119.865 359.135 120.772C359.135 121.168 359.267 121.478 359.531 121.701C359.795 121.925 360.135 122.036 360.55 122.036ZM363.147 112.774C363.147 113.325 362.958 113.769 362.58 114.107C362.206 114.439 361.714 114.606 361.103 114.606C360.493 114.606 359.998 114.437 359.62 114.1C359.242 113.763 359.052 113.321 359.052 112.774H360.085C360.085 113.093 360.171 113.343 360.344 113.526C360.518 113.703 360.771 113.792 361.103 113.792C361.422 113.792 361.671 113.703 361.848 113.526C362.031 113.348 362.122 113.097 362.122 112.774H363.147Z" fill="#CE7A58"/>
<path d="M366.893 115.604L366.934 116.533C367.499 115.823 368.238 115.467 369.149 115.467C370.712 115.467 371.501 116.349 371.514 118.113V123H370.25V118.106C370.245 117.573 370.122 117.178 369.881 116.923C369.644 116.668 369.272 116.54 368.766 116.54C368.356 116.54 367.996 116.65 367.686 116.868C367.376 117.087 367.135 117.374 366.962 117.73V123H365.697V115.604H366.893Z" fill="#CE7A58"/>
<path d="M373.121 119.24C373.121 118.087 373.387 117.171 373.921 116.492C374.454 115.809 375.16 115.467 376.04 115.467C376.942 115.467 377.646 115.786 378.152 116.424L378.214 115.604H379.369V122.823C379.369 123.78 379.084 124.534 378.514 125.085C377.949 125.637 377.188 125.912 376.231 125.912C375.698 125.912 375.176 125.798 374.666 125.571C374.155 125.343 373.766 125.031 373.497 124.634L374.153 123.875C374.695 124.545 375.358 124.88 376.142 124.88C376.758 124.88 377.236 124.707 377.578 124.361C377.924 124.014 378.097 123.527 378.097 122.898V122.262C377.592 122.845 376.901 123.137 376.026 123.137C375.16 123.137 374.458 122.788 373.921 122.091C373.387 121.394 373.121 120.444 373.121 119.24ZM374.392 119.384C374.392 120.218 374.563 120.874 374.905 121.353C375.247 121.827 375.725 122.064 376.341 122.064C377.138 122.064 377.724 121.701 378.097 120.977V117.6C377.71 116.893 377.129 116.54 376.354 116.54C375.739 116.54 375.258 116.78 374.912 117.258C374.566 117.737 374.392 118.445 374.392 119.384Z" fill="#CE7A58"/>
<path d="M386.82 119.575L386.027 120.403V123H384.762V112.5H386.027V118.851L386.704 118.037L389.008 115.604H390.546L387.668 118.694L390.881 123H389.397L386.82 119.575Z" fill="#CE7A58"/>
<path d="M394.271 121.148L395.994 115.604H397.347L394.374 124.142C393.913 125.372 393.182 125.988 392.179 125.988L391.94 125.967L391.469 125.878V124.853L391.81 124.88C392.239 124.88 392.571 124.794 392.808 124.62C393.05 124.447 393.248 124.13 393.403 123.67L393.683 122.918L391.045 115.604H392.426L394.271 121.148ZM394.989 112.5H396.52L394.688 114.51H393.67L394.989 112.5Z" fill="#CE7A58"/>
<path d="M398.735 123.855H397.648L401.804 113.047H402.885L398.735 123.855Z" fill="#CE7A58"/>
<path d="M349.093 139V134.448H347.78V133.415H349.093V129.047H351.902C352.768 129.047 353.534 129.239 354.199 129.621C354.864 130.004 355.377 130.549 355.737 131.255C356.102 131.962 356.286 132.773 356.291 133.689V134.324C356.291 135.263 356.108 136.086 355.744 136.792C355.384 137.499 354.867 138.041 354.192 138.419C353.522 138.797 352.741 138.991 351.847 139H349.093ZM352.128 134.448H350.405V137.927H351.779C352.791 137.927 353.577 137.615 354.137 136.99C354.703 136.366 354.987 135.487 354.992 134.352V133.716C354.992 132.586 354.725 131.709 354.192 131.084C353.663 130.455 352.912 130.136 351.936 130.127H350.405V133.415H352.128V134.448Z" fill="#CE7A58"/>
<path d="M362.648 139C362.575 138.854 362.516 138.595 362.47 138.221C361.883 138.832 361.181 139.137 360.365 139.137C359.636 139.137 359.037 138.932 358.567 138.522C358.102 138.107 357.87 137.583 357.87 136.949C357.87 136.179 358.162 135.582 358.745 135.158C359.333 134.73 360.158 134.516 361.219 134.516H362.45V133.935C362.45 133.493 362.318 133.142 362.053 132.882C361.789 132.618 361.399 132.486 360.885 132.486C360.433 132.486 360.055 132.6 359.75 132.827C359.444 133.055 359.292 133.331 359.292 133.655H358.02C358.02 133.285 358.15 132.93 358.41 132.588C358.674 132.242 359.03 131.968 359.476 131.768C359.927 131.567 360.422 131.467 360.96 131.467C361.812 131.467 362.48 131.681 362.963 132.11C363.446 132.533 363.696 133.119 363.715 133.866V137.271C363.715 137.95 363.801 138.49 363.974 138.891V139H362.648ZM360.55 138.036C360.946 138.036 361.322 137.934 361.677 137.729C362.033 137.524 362.29 137.257 362.45 136.929V135.411H361.459C359.909 135.411 359.135 135.865 359.135 136.772C359.135 137.168 359.267 137.478 359.531 137.701C359.795 137.925 360.135 138.036 360.55 138.036ZM363.147 128.774C363.147 129.325 362.958 129.769 362.58 130.107C362.206 130.439 361.714 130.606 361.103 130.606C360.493 130.606 359.998 130.437 359.62 130.1C359.242 129.763 359.052 129.321 359.052 128.774H360.085C360.085 129.093 360.171 129.343 360.344 129.526C360.518 129.703 360.771 129.792 361.103 129.792C361.422 129.792 361.671 129.703 361.848 129.526C362.031 129.348 362.122 129.097 362.122 128.774H363.147Z" fill="#CE7A58"/>
<path d="M366.893 131.604L366.934 132.533C367.499 131.823 368.238 131.467 369.149 131.467C370.712 131.467 371.501 132.349 371.514 134.113V139H370.25V134.106C370.245 133.573 370.122 133.178 369.881 132.923C369.644 132.668 369.272 132.54 368.766 132.54C368.356 132.54 367.996 132.65 367.686 132.868C367.376 133.087 367.135 133.374 366.962 133.73V139H365.697V131.604H366.893Z" fill="#CE7A58"/>
<path d="M373.121 135.24C373.121 134.087 373.387 133.171 373.921 132.492C374.454 131.809 375.16 131.467 376.04 131.467C376.942 131.467 377.646 131.786 378.152 132.424L378.214 131.604H379.369V138.823C379.369 139.78 379.084 140.534 378.514 141.085C377.949 141.637 377.188 141.912 376.231 141.912C375.698 141.912 375.176 141.798 374.666 141.571C374.155 141.343 373.766 141.031 373.497 140.634L374.153 139.875C374.695 140.545 375.358 140.88 376.142 140.88C376.758 140.88 377.236 140.707 377.578 140.361C377.924 140.014 378.097 139.527 378.097 138.898V138.262C377.592 138.845 376.901 139.137 376.026 139.137C375.16 139.137 374.458 138.788 373.921 138.091C373.387 137.394 373.121 136.444 373.121 135.24ZM374.392 135.384C374.392 136.218 374.563 136.874 374.905 137.353C375.247 137.827 375.725 138.064 376.341 138.064C377.138 138.064 377.724 137.701 378.097 136.977V133.6C377.71 132.893 377.129 132.54 376.354 132.54C375.739 132.54 375.258 132.78 374.912 133.258C374.566 133.737 374.392 134.445 374.392 135.384Z" fill="#CE7A58"/>
<path d="M385.952 131.604L385.993 132.533C386.558 131.823 387.296 131.467 388.208 131.467C389.771 131.467 390.559 132.349 390.573 134.113V139H389.308V134.106C389.304 133.573 389.181 133.178 388.939 132.923C388.702 132.668 388.331 132.54 387.825 132.54C387.415 132.54 387.055 132.65 386.745 132.868C386.435 133.087 386.193 133.374 386.02 133.73V139H384.756V131.604H385.952Z" fill="#CE7A58"/>
<path d="M393.745 132.499C394.305 131.811 395.035 131.467 395.932 131.467C397.496 131.467 398.284 132.349 398.298 134.113V139H397.033V134.106C397.028 133.573 396.905 133.178 396.664 132.923C396.427 132.668 396.055 132.54 395.55 132.54C395.139 132.54 394.779 132.65 394.469 132.868C394.16 133.087 393.918 133.374 393.745 133.73V139H392.48V128.5H393.745V132.499Z" fill="#CE7A58"/>
<path d="M404.758 139C404.685 138.854 404.625 138.595 404.58 138.221C403.992 138.832 403.29 139.137 402.474 139.137C401.745 139.137 401.146 138.932 400.677 138.522C400.212 138.107 399.979 137.583 399.979 136.949C399.979 136.179 400.271 135.582 400.854 135.158C401.442 134.73 402.267 134.516 403.329 134.516H404.559V133.935C404.559 133.493 404.427 133.142 404.163 132.882C403.899 132.618 403.509 132.486 402.994 132.486C402.543 132.486 402.164 132.6 401.859 132.827C401.554 133.055 401.401 133.331 401.401 133.655H400.13C400.13 133.285 400.26 132.93 400.519 132.588C400.784 132.242 401.139 131.968 401.586 131.768C402.037 131.567 402.531 131.467 403.069 131.467C403.921 131.467 404.589 131.681 405.072 132.11C405.555 132.533 405.806 133.119 405.824 133.866V137.271C405.824 137.95 405.911 138.49 406.084 138.891V139H404.758ZM402.659 138.036C403.055 138.036 403.431 137.934 403.787 137.729C404.142 137.524 404.4 137.257 404.559 136.929V135.411H403.568C402.019 135.411 401.244 135.865 401.244 136.772C401.244 137.168 401.376 137.478 401.64 137.701C401.905 137.925 402.244 138.036 402.659 138.036ZM405.277 130.373V130.442H404.231L403.206 129.28L402.187 130.442H401.141V130.36L402.823 128.5H403.589L405.277 130.373ZM401.873 140.675C401.873 140.47 401.934 140.297 402.057 140.156C402.185 140.014 402.372 139.944 402.618 139.944C402.864 139.944 403.051 140.014 403.178 140.156C403.306 140.297 403.37 140.47 403.37 140.675C403.37 140.88 403.306 141.051 403.178 141.188C403.051 141.324 402.864 141.393 402.618 141.393C402.372 141.393 402.185 141.324 402.057 141.188C401.934 141.051 401.873 140.88 401.873 140.675Z" fill="#CE7A58"/>
<path d="M414.054 135.384C414.054 136.51 413.797 137.417 413.282 138.105C412.767 138.793 412.07 139.137 411.19 139.137C410.292 139.137 409.586 138.852 409.071 138.282V141.844H407.806V131.604H408.962L409.023 132.424C409.538 131.786 410.254 131.467 411.17 131.467C412.058 131.467 412.76 131.802 413.275 132.472C413.795 133.142 414.054 134.074 414.054 135.268V135.384ZM412.79 135.24C412.79 134.406 412.612 133.748 412.257 133.265C411.901 132.782 411.413 132.54 410.794 132.54C410.028 132.54 409.454 132.88 409.071 133.559V137.093C409.449 137.767 410.028 138.105 410.807 138.105C411.413 138.105 411.894 137.865 412.25 137.387C412.61 136.904 412.79 136.188 412.79 135.24Z" fill="#CE7A58"/>
</svg>
