<svg width="18" height="19" viewBox="0 0 18 19" fill="none" xmlns="http://www.w3.org/2000/svg">
<path d="M9 18.1421V14.1421" stroke="#292D34" stroke-width="1.5" stroke-miterlimit="10" stroke-linecap="square"/>
<path d="M7.18229 11.333L2.19143 14.0644C1.45714 14.465 1 15.2347 1 16.0713V18.1427H17V16.0713C17 15.2347 16.5429 14.465 15.8086 14.0644L10.8177 11.333" stroke="#292D34" stroke-width="1.5" stroke-miterlimit="10"/>
<path d="M4.42853 5.57143C4.42853 3.04686 6.47538 1 8.99996 1C11.5245 1 13.5714 3.04686 13.5714 5.57143C13.5714 9 11.5245 11.8571 8.99996 11.8571C6.47538 11.8571 4.42853 9 4.42853 5.57143Z" stroke="#292D34" stroke-width="1.5" stroke-miterlimit="10" stroke-linecap="square"/>
<path d="M4.45038 5.12128C5.11838 5.40699 5.89038 5.57156 6.71438 5.57156C8.21209 5.57156 9.53781 5.0287 10.3715 4.19385C11.1012 5.0287 12.2607 5.57156 13.5715 5.57156" stroke="#292D34" stroke-width="1.5" stroke-miterlimit="10"/>
</svg>
